<?xml version="1.0" standalone="no"?>
<!DOCTYPE svg PUBLIC "-//W3C//DTD SVG 20010904//EN"
 "http://www.w3.org/TR/2001/REC-SVG-20010904/DTD/svg10.dtd">
<svg version="1.0" xmlns="http://www.w3.org/2000/svg"
 width="1080.000000pt" height="1080.000000pt" viewBox="0 0 1080.000000 1080.000000"
 preserveAspectRatio="xMidYMid meet">
<metadata>
Created by potrace 1.14, written by Peter Selinger 2001-2017
</metadata>
<g transform="translate(0.000000,1080.000000) scale(0.100000,-0.100000)"
fill="#000000" stroke="none">
<path d="M366 10242 c-12 -20 -20 -175 -19 -372 4 -454 18 -705 54 -915 6 -38
12 -81 12 -95 -1 -43 39 -213 59 -253 29 -59 153 -354 198 -473 23 -60 59
-145 80 -189 42 -88 160 -354 160 -361 0 -3 9 -24 19 -47 54 -118 76 -171 112
-266 21 -57 70 -172 108 -255 54 -119 184 -414 251 -571 25 -58 85 -196 105
-240 13 -27 37 -81 53 -120 17 -38 62 -144 102 -235 40 -91 92 -210 115 -265
24 -55 91 -210 150 -345 128 -296 146 -340 139 -340 -3 0 -21 11 -41 25 -20
13 -40 22 -46 18 -5 -3 -23 2 -40 10 -78 37 -114 48 -229 73 -284 60 -453 105
-568 151 -91 37 -265 110 -287 122 -10 5 -103 51 -208 102 -104 51 -201 100
-215 109 -14 10 -58 36 -98 60 -40 23 -93 63 -117 88 -25 25 -48 43 -51 39 -3
-3 14 -68 39 -144 25 -76 50 -167 57 -203 6 -36 15 -87 20 -115 17 -85 48
-275 61 -375 22 -164 16 -668 -10 -810 -6 -30 -13 -127 -16 -215 -6 -181 -18
-354 -35 -499 -11 -99 -8 -535 5 -626 31 -223 90 -472 156 -660 43 -124 47
-131 126 -289 40 -79 73 -144 73 -145 0 0 -38 -1 -84 -2 -47 0 -109 -6 -138
-12 -29 -6 -93 -18 -143 -27 -82 -14 -194 -44 -252 -66 -13 -5 -23 -17 -23
-28 0 -19 1 -18 62 1 35 11 92 26 128 33 36 7 106 23 155 36 114 29 260 32
319 6 22 -10 41 -15 43 -13 3 2 -8 24 -23 48 -43 68 -151 314 -212 483 -28 80
-85 297 -113 430 -32 153 -50 351 -50 555 -1 180 4 265 31 610 6 69 15 195 20
280 6 85 18 202 26 260 22 147 14 519 -15 720 -12 79 -24 152 -26 161 -3 10
-10 41 -15 71 -5 29 -16 85 -25 123 -35 163 -45 211 -45 230 0 11 -7 33 -15
49 -22 42 -12 43 35 5 23 -19 70 -51 104 -71 58 -35 499 -258 510 -258 3 0 35
-13 71 -30 36 -16 68 -30 71 -30 3 0 36 -13 72 -29 91 -40 422 -131 477 -131
30 0 253 -57 313 -80 68 -26 128 -64 142 -90 6 -12 22 -25 35 -30 24 -9 52
-61 135 -250 23 -52 46 -104 51 -115 5 -11 32 -74 60 -140 28 -66 66 -154 84
-195 18 -41 54 -124 80 -185 26 -60 62 -144 80 -185 42 -95 106 -245 187 -434
l64 -148 -56 -54 c-31 -30 -62 -54 -69 -54 -15 0 -11 -13 31 -125 45 -119 63
-147 119 -177 27 -16 49 -35 49 -43 0 -21 13 -19 43 9 14 13 46 30 70 39 43
14 46 14 67 -5 12 -11 26 -31 31 -45 8 -21 6 -28 -11 -40 -29 -20 -25 -50 18
-150 21 -48 49 -115 61 -148 13 -33 32 -82 43 -108 10 -26 17 -56 13 -66 -3
-9 -26 -40 -53 -68 -41 -45 -57 -54 -133 -78 -75 -23 -93 -25 -139 -17 -79 14
-84 10 -75 -62 3 -34 11 -81 17 -105 13 -50 11 -52 -67 -77 -102 -32 -265 -98
-265 -106 0 -5 18 -42 41 -83 22 -41 38 -79 35 -84 -3 -5 -40 -32 -82 -59 -52
-35 -93 -54 -132 -62 -134 -26 -137 -35 -49 -122 122 -121 374 -232 594 -263
48 -6 53 -9 64 -42 15 -48 66 -103 114 -124 53 -23 238 -53 282 -44 19 3 36
12 39 20 3 8 -9 56 -26 107 -37 109 -48 225 -31 334 10 67 57 243 67 253 2 3
18 -12 35 -32 17 -21 57 -49 93 -67 54 -25 76 -30 140 -30 54 0 76 -4 77 -12
0 -7 0 -66 -1 -132 -1 -117 -1 -119 28 -155 95 -118 252 -427 317 -626 46
-138 76 -209 106 -247 43 -54 45 -54 252 22 32 11 77 23 101 26 37 5 44 4 48
-13 4 -13 23 -26 59 -37 30 -10 64 -24 77 -32 15 -10 28 -12 35 -6 7 5 25 12
41 16 16 4 63 27 105 52 l76 44 5 51 5 50 83 29 c46 16 95 31 110 34 43 7 182
45 194 52 6 4 24 10 42 14 17 4 85 24 151 43 66 20 142 39 169 43 44 6 48 5
42 -12 -3 -11 -8 -50 -10 -87 -5 -62 -9 -73 -46 -114 -23 -27 -96 -82 -171
-129 -71 -46 -180 -123 -240 -171 l-111 -88 993 -3 c546 -1 996 1 1000 5 4 5
73 138 155 298 81 160 149 292 150 294 2 2 72 18 156 35 128 25 173 30 273 28
145 -2 362 -26 715 -78 149 -22 307 -44 365 -50 28 -3 95 -14 150 -25 153 -29
201 -38 320 -58 91 -15 189 -44 335 -99 8 -3 18 -4 23 -4 4 1 7 -2 7 -7 0 -5
10 -7 22 -3 13 3 19 1 15 -5 -4 -6 20 -22 54 -36 32 -14 57 -22 54 -18 -2 5
12 8 32 7 32 -1 39 3 47 26 7 21 5 35 -9 61 -17 32 -17 37 -2 78 9 24 28 78
43 119 l26 75 -37 115 c-21 63 -46 130 -56 148 -24 42 -24 51 3 79 l21 23 -46
139 c-26 77 -47 146 -47 154 0 8 13 39 30 70 16 31 30 65 30 76 0 10 7 36 16
57 48 115 56 296 19 440 -32 122 -68 199 -131 284 -51 67 -111 108 -216 146
-35 13 -47 23 -52 43 -6 31 -92 131 -112 131 -7 0 -20 13 -29 29 -17 34 -31
45 -45 36 -5 -3 14 -29 43 -58 48 -48 117 -141 117 -157 0 -4 -37 -10 -83 -12
-46 -3 -96 -12 -113 -21 -45 -24 -121 -104 -177 -190 l-52 -77 -13 62 c-6 35
-26 91 -42 124 -30 61 -37 98 -22 108 21 13 -42 254 -93 356 -15 30 -21 56
-18 77 5 30 -4 41 -146 182 -142 140 -155 155 -197 243 -25 51 -53 100 -63
108 -9 8 -36 60 -60 115 -24 55 -72 159 -107 231 -35 71 -64 134 -64 139 0 4
8 2 18 -6 9 -8 33 -22 52 -32 19 -10 60 -41 91 -70 31 -29 80 -72 109 -97 30
-25 75 -63 100 -85 26 -22 75 -62 109 -90 35 -27 91 -73 125 -101 34 -28 80
-64 103 -80 35 -25 158 -122 218 -172 52 -44 67 -54 80 -56 8 -1 26 -13 40
-26 14 -13 25 -21 25 -19 0 3 -78 77 -172 165 -187 173 -358 316 -429 357 -24
14 -60 42 -79 62 -19 20 -57 53 -85 73 -27 20 -75 58 -106 84 -54 46 -78 60
-63 36 4 -7 3 -8 -4 -4 -7 4 -12 14 -12 22 0 8 -8 18 -17 21 -19 7 -157 146
-234 235 -45 52 -169 247 -169 266 0 20 -59 94 -91 114 -51 32 -127 68 -143
68 -7 0 -20 7 -27 16 -10 12 -24 15 -60 10 -79 -11 -82 18 -11 97 21 22 23 30
13 40 -10 10 -21 3 -56 -36 -24 -26 -50 -63 -57 -82 -6 -19 -17 -35 -23 -35
-5 0 -26 15 -47 33 -69 61 -119 99 -124 94 -7 -7 72 -96 115 -130 57 -45 61
-54 61 -147 0 -92 11 -120 38 -94 8 8 22 12 31 9 9 -4 25 -9 36 -11 11 -2 45
-12 75 -21 54 -18 54 -19 72 -77 10 -33 16 -61 13 -64 -3 -3 -31 20 -62 50
-111 105 -144 101 -42 -5 39 -39 81 -91 95 -115 26 -43 26 -46 22 -220 -2
-115 -7 -184 -15 -197 -9 -14 -13 -16 -13 -5 0 8 -12 35 -25 60 -14 25 -40 78
-59 117 -36 76 -176 315 -230 393 -17 25 -35 52 -41 61 -22 35 -83 121 -138
194 -56 74 -272 295 -289 295 -17 0 -7 -18 26 -48 41 -37 186 -206 238 -276
44 -60 178 -253 193 -278 5 -9 44 -71 85 -137 72 -115 121 -201 154 -266 8
-16 23 -46 34 -65 28 -52 78 -159 130 -280 9 -22 10 -21 5 12 -4 29 -2 39 10
44 46 17 139 -52 157 -117 28 -97 -5 -194 -67 -194 -29 0 -30 -1 -21 -33 5
-18 8 -37 6 -42 -2 -5 -34 21 -73 58 -38 37 -90 83 -115 102 -25 19 -48 38
-51 43 -4 5 -15 14 -26 20 -12 7 -60 39 -108 72 -49 33 -95 65 -104 70 -9 6
-32 22 -51 36 -19 14 -87 52 -150 84 -63 31 -125 66 -138 78 -28 26 -35 18
-51 -58 -14 -67 -50 -155 -63 -155 -12 0 -25 37 -32 100 -17 133 -41 227 -80
314 -14 32 -26 64 -26 70 0 6 -13 30 -28 52 -105 160 -143 214 -177 249 -21
22 -98 105 -171 185 -196 215 -351 359 -404 375 -16 4 23 -40 111 -126 120
-118 197 -202 352 -383 23 -27 55 -63 70 -80 74 -80 169 -221 214 -316 62
-131 68 -147 88 -245 9 -44 26 -111 37 -148 20 -65 20 -70 5 -103 -24 -50 -22
-76 5 -72 26 4 119 152 122 193 0 14 4 25 8 25 4 0 10 20 14 45 8 55 15 60 45
36 13 -10 38 -26 54 -35 64 -35 102 -60 157 -100 114 -83 170 -121 179 -121 6
0 13 -5 17 -12 4 -7 48 -43 97 -81 87 -67 90 -70 89 -108 -2 -74 -44 -230 -96
-349 -70 -161 -83 -178 -130 -172 -35 5 -146 66 -168 92 -13 16 -91 256 -136
420 -20 71 -42 139 -50 150 -8 10 -14 33 -14 50 -1 27 -2 28 -12 11 -6 -12
-10 -57 -9 -108 1 -57 -2 -88 -9 -88 -6 0 -37 14 -70 30 -33 17 -64 30 -70 30
-29 0 10 -82 133 -283 54 -89 162 -367 173 -447 l6 -46 63 -18 c60 -17 64 -20
84 -65 11 -25 27 -57 35 -71 56 -98 73 -130 88 -170 10 -25 18 -47 18 -50 0
-3 -27 25 -60 62 -33 37 -95 91 -138 121 -42 30 -86 62 -97 71 -43 34 -188
125 -218 136 -18 7 -61 26 -97 42 -149 67 -329 123 -525 163 -308 62 -708 48
-1007 -35 -43 -11 -115 -23 -160 -24 -46 -2 -116 -11 -156 -21 -53 -13 -76
-15 -84 -7 -6 6 -12 45 -14 87 -2 42 -5 84 -8 93 -5 18 -22 172 -31 282 -21
255 -25 879 -7 1005 11 74 2 119 -25 123 -18 3 -24 -4 -35 -44 -11 -38 -19
-49 -40 -55 l-27 -7 20 50 c10 27 28 66 38 86 12 24 21 70 25 132 14 185 53
356 107 461 10 20 15 40 11 44 -4 5 -2 6 4 2 5 -3 45 27 88 68 83 79 127 105
173 105 37 0 45 8 33 31 -10 18 -7 19 68 34 37 7 174 -23 250 -54 96 -40 150
-73 197 -120 42 -44 55 -50 55 -26 0 13 4 14 20 5 41 -22 18 9 -37 51 -157
119 -277 171 -431 185 -80 8 -87 6 -232 -65 -117 -56 -207 -141 -259 -244 -19
-37 -37 -67 -39 -67 -12 0 8 319 23 368 15 49 20 54 68 76 118 53 194 164 226
327 l17 90 93 -93 94 -93 -58 80 c-32 44 -74 100 -94 124 -53 64 -120 155
-121 163 0 4 -17 42 -38 85 -45 93 -86 218 -107 328 -8 44 -15 80 -15 80 0 0
-25 -2 -55 -3 -36 -3 -77 3 -122 18 -84 26 -260 111 -299 143 -34 28 -80 42
-89 27 -7 -11 78 -175 96 -186 6 -3 42 -54 81 -113 38 -58 89 -126 113 -151
l44 -45 -16 -160 c-19 -201 -12 -607 17 -1010 32 -454 25 -693 -25 -835 -18
-52 -10 -45 34 25 47 76 37 45 -15 -47 -117 -206 -334 -693 -334 -749 0 -19
-4 -21 -37 -15 -68 11 -87 7 -113 -23 -14 -15 -54 -63 -90 -105 -60 -70 -68
-76 -99 -74 -31 3 -36 -1 -58 -42 -57 -104 -134 -207 -172 -228 -21 -12 -41
-22 -44 -22 -9 0 -47 90 -47 111 0 10 -10 56 -21 101 -19 73 -28 89 -70 133
-34 35 -49 59 -49 77 0 15 -4 29 -9 33 -8 4 -71 182 -71 199 0 3 29 38 65 77
36 39 68 82 71 95 4 14 -1 53 -11 87 -35 128 -32 125 -122 169 -78 37 -85 39
-106 25 -22 -14 -24 -13 -37 6 -7 12 -27 64 -46 117 -18 52 -51 142 -74 200
-23 58 -45 116 -49 130 -5 14 -22 59 -39 100 -34 82 -128 326 -198 515 -24 66
-51 135 -59 152 -51 113 -64 412 -26 573 25 104 43 160 54 160 4 0 13 -12 19
-27 21 -47 100 -176 137 -223 33 -42 89 -102 221 -240 74 -77 290 -329 355
-414 77 -102 140 -181 221 -277 39 -46 76 -94 83 -107 21 -39 40 -114 48 -182
l7 -65 12 42 c18 61 12 360 -8 438 -46 172 -94 507 -110 760 -13 215 -4 590
17 675 17 73 29 101 63 147 23 31 118 102 155 116 9 3 17 11 17 17 0 18 -33
11 -100 -21 -86 -42 -204 -61 -370 -61 -129 0 -262 20 -335 52 -11 5 -31 11
-45 13 -27 5 -146 35 -169 43 -20 7 2 28 67 66 136 77 270 193 380 328 36 45
142 198 142 207 0 3 11 21 25 39 14 18 25 36 25 40 0 4 23 45 50 91 44 72 140
259 152 294 13 39 108 -37 210 -168 52 -68 202 -222 251 -258 36 -26 38 -31
32 -64 -22 -121 -143 -393 -231 -518 -24 -35 -42 -63 -40 -63 2 0 52 20 111
45 59 25 130 47 159 50 31 3 79 19 124 41 91 46 193 153 228 237 12 31 41 82
63 113 38 53 44 74 20 74 -5 0 -85 29 -177 65 -284 112 -422 200 -561 357 -44
51 -81 96 -81 100 0 4 19 12 43 18 158 42 387 137 465 194 73 54 168 149 189
189 13 25 2 18 -58 -37 -81 -76 -153 -126 -180 -126 -10 0 -24 -9 -32 -20 -17
-24 -137 -80 -270 -124 -107 -36 -224 -63 -233 -53 -7 7 102 225 166 332 27
44 66 112 89 150 22 39 64 94 93 123 28 28 46 52 39 52 -15 0 -91 -61 -91 -73
0 -5 -12 -22 -27 -37 -45 -48 -160 -245 -248 -425 -110 -227 -165 -345 -165
-356 0 -6 -20 -40 -43 -77 -24 -37 -63 -98 -86 -137 -97 -161 -135 -215 -220
-311 -49 -56 -115 -121 -148 -146 -80 -62 -280 -187 -309 -194 -39 -10 -28
-21 29 -28 28 -4 88 -20 132 -35 199 -71 281 -86 470 -85 116 0 179 5 229 17
38 10 70 16 72 14 2 -1 -14 -36 -35 -77 -21 -41 -46 -109 -56 -150 -31 -134
-34 -393 -10 -735 7 -99 57 -460 75 -539 5 -23 14 -106 20 -186 6 -80 13 -157
16 -173 7 -35 -7 -35 -28 1 -9 15 -24 36 -33 47 -8 11 -36 47 -61 80 -25 33
-58 76 -72 95 -113 148 -459 555 -572 670 -134 138 -160 170 -225 278 -6 9
-28 50 -49 91 -37 67 -41 72 -54 55 -58 -79 -90 -214 -99 -418 -3 -76 -9 -132
-13 -125 -5 8 -58 147 -120 309 -62 162 -144 376 -183 475 -39 99 -78 203 -88
231 -9 28 -22 60 -28 70 -10 18 -99 246 -128 329 -7 22 -17 49 -22 60 -5 11
-28 70 -50 130 -23 61 -48 126 -56 145 -34 85 -206 530 -249 645 -13 33 -64
167 -115 297 -50 131 -91 240 -91 243 0 3 -9 24 -19 48 -29 62 -85 208 -162
420 -77 210 -69 193 -150 337 -73 128 -113 182 -64 85 51 -104 119 -267 262
-639 47 -121 94 -243 105 -271 10 -27 33 -86 49 -130 53 -140 74 -193 203
-530 70 -181 138 -357 151 -390 46 -117 237 -612 287 -745 54 -145 100 -265
141 -370 14 -36 46 -119 72 -185 26 -66 67 -172 92 -235 25 -63 55 -142 68
-175 47 -121 99 -262 127 -350 16 -49 37 -103 48 -120 10 -16 33 -68 50 -115
85 -222 105 -273 144 -375 24 -60 66 -168 94 -240 27 -71 78 -201 111 -288 34
-86 67 -182 74 -213 11 -56 5 -87 -38 -188 -6 -14 -5 -17 4 -11 25 15 53 97
58 171 6 70 8 75 38 92 31 19 32 19 78 -4 25 -13 49 -28 52 -34 7 -12 -14 -49
-65 -112 l-35 -43 45 39 c25 22 52 50 61 64 21 30 26 22 50 -75 15 -58 16 -79
7 -96 -6 -12 -56 -71 -112 -132 -56 -60 -117 -130 -136 -155 l-35 -45 40 32
c22 17 51 43 64 57 14 14 30 26 37 26 6 0 25 -42 42 -92 43 -133 46 -154 29
-179 -15 -20 -16 -20 -25 -2 -5 10 -22 55 -37 101 -26 79 -27 104 -10 145 4
10 3 17 -4 17 -6 0 -11 -7 -11 -16 0 -8 -7 -22 -15 -30 -21 -22 -19 -50 11
-124 14 -36 36 -89 48 -119 20 -52 46 -79 46 -48 0 7 9 22 19 31 18 17 20 16
27 -6 12 -40 7 -120 -16 -223 -38 -176 -39 -171 25 -298 31 -61 63 -119 71
-128 8 -8 14 -21 14 -28 0 -6 8 -15 18 -19 29 -12 171 -93 176 -100 2 -4 -2
-61 -10 -127 -7 -66 -13 -126 -14 -132 0 -26 -37 -12 -103 40 -37 28 -76 59
-88 67 -21 15 -21 18 -9 127 12 111 7 172 -10 128 l-8 -20 -7 20 c-4 11 -15
36 -25 55 -10 19 -28 60 -40 90 -37 94 -51 118 -72 123 -11 3 -80 -3 -152 -13
-156 -23 -232 -25 -276 -6 -27 11 -29 14 -14 19 53 17 140 76 157 107 l19 34
-32 95 c-18 53 -38 102 -45 109 -9 11 -23 9 -71 -9 -74 -28 -103 -31 -126 -15
-16 12 -17 15 -3 26 8 7 15 19 15 27 0 10 -11 8 -42 -11 -24 -13 -54 -24 -68
-24 -32 1 -97 -38 -78 -45 7 -3 0 -4 -16 -4 -19 1 -32 -5 -40 -18 -21 -38 -46
-46 -46 -15 0 15 -6 19 -23 18 -13 -1 -37 4 -54 11 -27 11 -35 25 -64 104 -19
51 -36 96 -38 100 -2 5 11 2 27 -7 39 -20 74 -67 97 -131 10 -27 22 -54 26
-59 16 -18 10 21 -11 69 -26 62 -25 73 8 81 15 4 39 18 54 32 15 14 31 22 35
19 3 -4 13 -1 22 6 9 8 43 24 76 37 33 13 73 34 89 47 15 13 42 31 60 40 62
32 5 23 -76 -12 -46 -20 -108 -47 -138 -60 -86 -36 -123 -54 -145 -69 -18 -13
-25 -11 -73 20 -60 39 -60 40 9 94 30 25 41 29 62 21 84 -32 236 -6 312 53 18
14 14 14 -35 0 -30 -9 -58 -18 -61 -20 -15 -9 -158 -5 -175 4 -20 11 -42 49
-89 162 -34 79 -76 177 -145 335 -29 66 -58 134 -65 150 -7 17 -22 51 -34 77
-22 50 -181 419 -236 548 -18 41 -58 136 -89 210 -83 194 -128 290 -137 290
-5 0 -5 7 -2 17 5 12 3 14 -7 8 -9 -6 -11 -4 -6 4 5 7 -10 52 -33 104 -43 96
-144 332 -216 502 -23 55 -53 125 -67 155 -14 30 -28 65 -32 78 -4 12 -11 20
-16 17 -11 -7 -23 32 -14 46 4 7 3 9 -3 6 -13 -8 -26 20 -16 35 3 7 1 8 -5 4
-7 -4 -13 -1 -13 6 -5 53 -7 58 -204 508 -59 135 -117 270 -130 300 -12 30
-69 163 -127 295 -57 132 -156 358 -218 502 -63 144 -117 260 -121 257 -11 -6
-22 34 -13 47 5 8 3 9 -6 4 -10 -6 -12 -4 -7 9 5 11 3 15 -5 10 -7 -5 -9 0 -6
14 4 12 3 20 -2 17 -11 -7 -22 24 -13 37 4 7 1 8 -7 3 -8 -5 -11 -3 -8 6 6 17
-9 56 -102 269 -149 341 -192 443 -210 503 -40 131 -76 402 -86 637 -2 63 -7
169 -10 235 -12 213 -5 638 10 652 15 15 159 -79 211 -137 11 -12 90 -84 175
-159 284 -249 455 -439 536 -597 20 -38 113 -164 121 -164 7 0 -28 61 -72 123
-25 36 -45 67 -45 70 0 4 -21 36 -47 72 -27 37 -55 77 -63 89 -16 24 -90 111
-204 239 -38 42 -117 119 -175 169 -58 51 -138 122 -176 158 -100 92 -218 170
-260 170 -19 0 -36 -4 -39 -8z m5664 -5342 c19 -17 26 -27 15 -21 -11 6 -36
25 -55 42 -19 17 -26 26 -15 20 11 -6 36 -24 55 -41z m-720 17 c0 -2 -15 -16
-32 -33 l-33 -29 29 33 c28 30 36 37 36 29z m2560 -585 c12 -30 19 -57 16 -59
-2 -2 -21 3 -41 11 -21 9 -50 16 -66 16 -29 0 -40 22 -19 35 6 4 22 25 37 48
24 38 26 40 39 22 8 -10 23 -43 34 -73z m336 -194 c8 -16 13 -33 9 -36 -10
-10 -45 37 -45 60 0 25 16 15 36 -24z m21 -108 c15 0 38 -29 77 -100 57 -102
174 -335 195 -387 10 -27 40 -95 65 -152 26 -57 46 -107 44 -112 -2 -4 -23 4
-48 20 -25 15 -76 45 -115 66 -38 21 -77 44 -86 51 -8 8 -21 14 -28 14 -19 0
-29 38 -41 155 -20 192 -57 395 -69 376 -4 -6 -12 14 -18 45 -8 46 -8 54 2 41
7 -9 17 -17 22 -17z m0 -122 c-3 -7 -5 -2 -5 12 0 14 2 19 5 13 2 -7 2 -19 0
-25z m-3160 -130 c2 -112 0 -139 -9 -123 -7 11 -11 46 -10 77 0 32 -3 60 -8
63 -14 9 -12 51 4 90 8 19 17 35 18 35 2 0 5 -64 5 -142z m-267 -562 c0 -8 -9
-17 -20 -21 -11 -3 -34 -33 -51 -66 -34 -63 -65 -91 -75 -66 -2 7 19 48 47 90
40 59 58 77 76 77 13 0 23 -6 23 -14z m-219 -106 c28 0 39 -4 39 -15 0 -10
-10 -15 -27 -15 -52 -1 -103 -33 -157 -100 -28 -36 -60 -66 -69 -68 -29 -6
-20 34 15 63 17 14 44 45 61 68 38 54 67 79 84 72 8 -3 32 -5 54 -5z m514
-230 c8 -63 21 -149 29 -190 8 -41 15 -95 15 -118 1 -53 36 -91 102 -112 24
-7 48 -17 54 -22 5 -4 17 -8 27 -8 37 0 98 -25 98 -40 0 -8 3 -24 6 -36 5 -20
1 -21 -100 -27 -57 -3 -122 -10 -143 -16 -21 -5 -74 -17 -118 -25 -45 -9 -116
-28 -159 -42 -69 -22 -80 -23 -95 -11 -24 21 -73 29 -105 17 -16 -6 -56 -35
-91 -65 -34 -30 -65 -55 -68 -55 -2 0 -11 21 -18 46 -16 54 -68 104 -129 124
-22 7 -40 17 -40 21 0 4 26 17 58 29 82 32 223 28 252 -7 39 -45 106 -78 130
-63 7 4 14 42 17 87 4 62 2 85 -10 104 -14 21 -14 27 -2 49 14 25 14 25 15
-12 0 -55 20 -49 81 25 28 34 59 69 68 78 16 15 38 100 88 327 10 46 19 77 20
70 2 -7 10 -65 18 -128z m-1201 37 c16 -47 42 -137 52 -182 4 -16 12 -41 19
-55 21 -41 29 -93 15 -88 -14 4 -107 241 -121 308 -5 24 -14 49 -19 54 -6 6
-10 16 -10 23 0 28 49 -19 64 -60z m426 -9 c41 -13 58 -48 23 -48 -29 0 -110
-60 -138 -102 -60 -91 -147 -168 -190 -168 -30 0 -14 27 28 45 55 23 177 175
207 258 11 31 15 32 70 15z m-921 -176 c36 -96 37 -113 14 -134 -26 -22 -91
-41 -111 -32 -9 4 -26 6 -38 5 -32 -3 -81 55 -110 131 -14 38 -24 71 -21 74 2
3 23 1 46 -5 24 -5 41 -5 41 0 0 5 17 9 38 9 24 0 47 8 67 24 17 14 33 21 37
18 4 -4 21 -44 37 -90z m4991 2 c0 -3 -16 -25 -35 -48 l-35 -43 56 -21 57 -21
28 22 29 21 70 -23 c147 -49 185 -68 188 -96 2 -14 -4 -38 -13 -51 l-16 -25
-48 44 c-45 42 -150 93 -175 84 -6 -2 7 -15 29 -28 92 -54 337 -223 425 -294
80 -64 103 -89 148 -163 68 -112 134 -241 130 -254 -2 -6 -20 -12 -41 -14 -20
-2 -100 -19 -178 -39 -78 -19 -170 -37 -204 -39 -34 -2 -105 -17 -158 -32
l-97 -28 -197 18 c-109 10 -204 20 -211 22 -23 7 -9 137 31 284 47 175 76 353
84 513 l6 128 41 43 c23 24 51 44 64 45 12 0 22 -2 22 -5z m-1931 -133 c35
-11 73 -29 85 -39 11 -11 43 -30 69 -43 58 -26 418 -364 435 -407 17 -42 69
-245 92 -362 24 -116 21 -171 -11 -273 -26 -81 -115 -250 -150 -283 -38 -37
-157 -74 -237 -74 l-63 0 7 36 c17 90 -68 386 -146 512 -17 26 -39 67 -50 91
-12 25 -38 64 -60 87 -21 23 -48 60 -59 82 -11 22 -35 51 -53 63 -18 13 -60
48 -93 79 -147 138 -378 224 -657 246 l-87 6 -6 37 c-3 20 -5 55 -4 76 1 22
-1 47 -4 55 -7 17 66 57 130 71 281 60 367 69 618 64 147 -3 192 -7 244 -24z
m-1269 -86 c7 -9 8 -15 2 -15 -5 0 -12 7 -16 15 -3 8 -4 15 -2 15 2 0 9 -7 16
-15z m1868 -74 c24 -29 31 -47 23 -60 -6 -9 -23 2 -62 38 l-54 51 40 -6 c22
-3 46 -14 53 -23z m2928 -320 c-3 -4 4 -17 15 -27 16 -15 19 -25 13 -59 -3
-22 -7 -41 -9 -43 -5 -5 -35 10 -35 19 0 4 7 6 15 3 12 -5 15 2 15 29 0 34
-29 76 -31 46 -1 -8 -1 -17 0 -21 0 -5 -6 -8 -14 -8 -8 0 -15 3 -15 6 0 11 23
49 34 56 15 10 18 10 12 -1z m-27 -161 c-10 -7 -66 -140 -70 -167 -2 -10 4
-31 13 -48 8 -16 13 -36 11 -42 -6 -18 -32 -16 -39 2 -4 8 -9 15 -13 15 -12 0
-53 -89 -46 -100 8 -14 -14 -41 -78 -91 -49 -39 -87 -50 -87 -26 0 8 9 22 20
32 10 9 31 48 46 86 17 44 33 69 43 69 9 1 26 21 38 45 18 37 20 45 7 56 -16
13 -18 28 -5 48 8 13 12 13 26 1 14 -12 18 -12 26 1 19 31 70 161 68 177 -3
37 3 35 25 -8 13 -25 20 -47 15 -50z m-229 -106 c12 -31 13 -84 2 -84 -16 0
-32 24 -32 48 0 19 -4 23 -17 17 -48 -18 -71 -17 -83 4 -8 17 -8 22 2 26 26 8
54 13 86 14 26 1 34 -4 42 -25z m-630 -130 c30 -9 60 -23 67 -33 7 -9 62 -102
122 -207 114 -198 151 -292 127 -317 -12 -12 -45 -23 -341 -118 -71 -22 -166
-58 -210 -78 -79 -36 -119 -53 -182 -73 -38 -13 -53 -4 -80 50 -10 20 -33 66
-52 102 -18 36 -39 79 -47 95 -7 17 -52 104 -99 194 -47 90 -85 170 -85 178 0
20 54 49 155 84 224 76 335 104 464 115 42 4 83 10 91 15 8 5 15 9 16 9 0 0
25 -7 54 -16z m860 -102 c0 -10 -18 -118 -26 -152 -5 -23 -6 -23 -16 -6 -6 11
-7 43 -3 82 6 60 5 64 -14 64 -12 0 -21 5 -21 10 0 6 18 10 40 10 22 0 40 -4
40 -8z m-1888 -104 c29 -32 182 -348 270 -559 46 -108 49 -149 13 -149 -9 0
-26 -7 -39 -15 -13 -9 -31 -13 -40 -9 -21 8 -71 107 -160 314 -37 85 -96 210
-131 277 -66 126 -70 147 -31 163 47 19 88 11 118 -22z m1721 -672 c65 -62
224 -330 247 -417 7 -24 18 -51 24 -59 31 -36 26 -47 -20 -54 -48 -6 -88 8
-125 45 -11 11 -24 17 -29 14 -5 -3 -32 4 -62 16 -145 58 -304 109 -337 109
-21 0 -75 9 -122 20 -140 33 -169 39 -309 60 -173 26 -187 31 -239 84 l-43 44
51 11 c75 16 613 117 776 145 77 13 141 25 141 25 1 1 22 -19 47 -43z"/>
<path d="M4835 2361 c-3 -5 -1 -12 5 -16 5 -3 10 1 10 9 0 18 -6 21 -15 7z"/>
<path d="M8940 1664 c-107 -12 -451 -111 -465 -134 -3 -4 9 -38 25 -74 17 -37
34 -83 38 -104 7 -31 12 -37 33 -35 33 2 96 18 216 55 107 33 136 32 131 -3
-2 -17 -26 -32 -108 -69 -58 -25 -121 -54 -141 -64 l-36 -18 15 -47 c28 -88
78 -171 103 -171 8 0 55 20 105 44 49 24 156 65 239 90 161 50 195 67 195 94
0 9 -32 76 -71 147 -39 72 -84 155 -99 185 -43 85 -93 113 -180 104z"/>
<path d="M6050 10214 c0 -9 22 -62 49 -118 27 -56 62 -130 79 -166 16 -36 48
-105 71 -153 22 -49 41 -91 41 -93 0 -2 13 -32 28 -66 40 -88 88 -204 108
-261 25 -70 29 -49 5 30 -30 101 -66 196 -127 330 -8 17 -14 34 -14 37 0 6
-62 139 -145 311 -19 39 -43 91 -54 118 -20 46 -41 62 -41 31z"/>
<path d="M5947 10159 c-16 -13 -37 -49 -48 -79 -25 -70 -24 -72 7 -25 15 22
38 52 51 67 14 14 23 34 21 44 -3 15 -6 15 -31 -7z"/>
<path d="M8950 9535 c0 -7 18 -49 40 -92 22 -43 40 -81 40 -85 0 -4 16 -40 35
-80 45 -95 126 -322 178 -498 20 -69 71 -293 87 -385 7 -38 19 -88 26 -110
l14 -40 -5 40 c-3 22 -7 65 -10 95 -16 157 -65 372 -127 555 -22 66 -44 125
-48 130 -4 6 -17 40 -28 77 -12 36 -25 75 -31 85 -5 10 -18 38 -29 63 -82 191
-142 294 -142 245z"/>
<path d="M8872 9443 c-11 -21 -32 -67 -47 -103 -24 -57 -70 -140 -143 -258
-12 -21 -27 -47 -32 -59 -5 -12 -18 -28 -30 -35 -27 -17 -26 -24 16 -74 122
-149 244 -620 244 -942 0 -43 4 -61 15 -65 24 -10 28 48 15 210 -15 202 -52
386 -110 553 -23 67 -97 225 -127 272 -17 25 -16 28 12 80 15 29 39 67 52 84
13 17 23 34 23 38 0 4 14 27 31 52 16 24 35 59 41 77 6 17 14 37 18 42 12 17
52 156 47 162 -3 3 -14 -12 -25 -34z"/>
<path d="M7274 9373 c-50 -75 -119 -149 -169 -181 -24 -15 -35 -27 -27 -30 8
-2 19 1 25 7 6 6 18 11 27 11 21 0 123 92 150 135 12 19 25 35 30 35 17 0 130
-516 130 -597 0 -40 4 -53 15 -53 34 0 9 218 -55 467 -17 65 -40 136 -50 159
-11 22 -20 55 -20 72 0 18 -4 32 -9 32 -5 0 -26 -26 -47 -57z"/>
<path d="M5417 9334 c-16 -16 165 -224 195 -224 16 0 8 27 -11 36 -24 11 -106
107 -134 156 -21 36 -36 46 -50 32z"/>
<path d="M5461 9174 c-2 -26 34 -121 60 -159 35 -52 88 -105 105 -105 27 0 22
18 -18 61 -38 41 -129 170 -141 200 -3 8 -6 9 -6 3z"/>
<path d="M5660 9146 c0 -8 5 -18 10 -21 6 -4 8 -15 5 -25 -4 -13 1 -22 15 -30
25 -13 28 6 5 36 -8 10 -15 27 -15 37 0 20 -20 23 -20 3z"/>
<path d="M1460 9131 c0 -5 5 -13 10 -16 6 -3 10 -2 10 4 0 5 -4 13 -10 16 -5
3 -10 2 -10 -4z"/>
<path d="M5630 9100 c0 -5 5 -10 10 -10 6 0 10 5 10 10 0 6 -4 10 -10 10 -5 0
-10 -4 -10 -10z"/>
<path d="M4780 9034 c0 -19 30 -182 44 -239 41 -170 96 -342 135 -429 28 -59
86 -152 118 -188 14 -16 10 -20 -58 -51 -41 -18 -116 -51 -166 -73 -65 -27
-93 -44 -93 -56 0 -9 5 -18 11 -20 10 -3 194 15 277 28 76 12 11 39 -68 28
-28 -4 -50 -3 -50 0 0 17 140 69 205 77 99 12 182 32 181 44 0 6 -27 29 -58
53 -110 80 -277 273 -335 387 -30 57 -103 328 -103 379 0 20 -8 40 -20 51 -11
10 -20 14 -20 9z m283 -730 c6 -12 31 -45 55 -73 27 -31 36 -48 25 -44 -10 2
-29 20 -43 39 -14 19 -37 51 -52 71 -16 20 -28 40 -28 46 0 14 28 -11 43 -39z"/>
<path d="M6494 8996 c-20 -15 -18 -17 31 -29 11 -3 28 -8 38 -12 27 -11 21 20
-8 39 -30 20 -36 20 -61 2z"/>
<path d="M4856 8959 c18 -30 169 -68 213 -54 39 12 21 25 -34 25 -31 0 -78 9
-107 20 -59 22 -82 25 -72 9z"/>
<path d="M5300 8940 c0 -5 10 -10 23 -10 18 0 19 2 7 10 -19 13 -30 13 -30 0z"/>
<path d="M5237 8933 c-12 -11 -8 -23 7 -23 7 0 19 7 26 15 10 12 9 15 -7 15
-11 0 -23 -3 -26 -7z"/>
<path d="M6250 8904 c-14 -10 -42 -33 -63 -53 -94 -88 -226 -340 -282 -536
-36 -126 -36 -127 -157 -155 l-106 -25 74 -65 c40 -36 79 -77 85 -92 8 -21 9
-69 1 -185 -11 -178 -9 -259 13 -385 8 -48 11 -95 7 -105 -19 -49 -75 -133
-88 -133 -24 0 -94 -155 -138 -308 -51 -179 -78 -324 -83 -459 -5 -115 -3
-140 16 -202 52 -171 246 -381 657 -710 31 -25 266 -201 309 -232 40 -29 95
-55 95 -45 0 1 -24 20 -52 41 -56 42 -197 157 -313 255 -39 33 -82 68 -95 77
-121 83 -403 361 -479 473 -152 222 -140 397 54 775 60 115 159 279 187 307
20 20 19 21 -10 116 -56 178 -64 374 -26 662 46 361 194 734 357 903 86 87 93
97 75 97 -7 0 -25 -7 -38 -16z m-400 -1690 c0 -8 -6 -14 -14 -14 -9 0 -12 7
-9 20 6 22 23 18 23 -6z"/>
<path d="M8439 8871 c-151 -114 -380 -406 -367 -467 2 -9 28 21 64 73 78 111
199 256 299 356 43 43 76 80 73 82 -3 3 -34 -17 -69 -44z"/>
<path d="M6820 8801 c0 -6 10 -27 21 -48 140 -247 215 -442 207 -538 -4 -40
23 -41 33 -1 13 47 -29 188 -101 341 -46 98 -105 196 -126 208 -8 4 -14 14
-14 22 0 8 -4 17 -10 20 -5 3 -10 2 -10 -4z"/>
<path d="M5410 8602 c0 -7 23 -45 51 -84 102 -144 228 -280 274 -298 48 -18
63 10 17 34 -34 18 -178 163 -262 266 -78 95 -80 97 -80 82z"/>
<path d="M7695 8590 c2 -4 26 -15 52 -25 75 -27 250 -114 263 -130 17 -20 40
-19 40 3 0 26 -215 126 -327 152 -18 4 -31 5 -28 0z"/>
<path d="M4770 8345 c0 -8 2 -15 4 -15 2 0 6 7 10 15 3 8 1 15 -4 15 -6 0 -10
-7 -10 -15z"/>
<path d="M4760 8289 c0 -5 5 -7 10 -4 6 3 10 8 10 11 0 2 -4 4 -10 4 -5 0 -10
-5 -10 -11z"/>
<path d="M6620 7982 c-14 -9 -29 -22 -33 -29 -4 -7 -14 -13 -22 -13 -20 0
-234 -216 -286 -290 -56 -80 -111 -193 -136 -280 -14 -50 -18 -102 -18 -228 0
-89 -3 -162 -7 -162 -4 0 -34 28 -67 62 -33 34 -63 59 -67 56 -8 -9 97 -147
146 -192 39 -35 80 -48 80 -25 0 6 -9 24 -21 40 -16 23 -23 55 -31 144 -6 68
-7 129 -1 151 l8 37 63 -104 c72 -119 137 -201 128 -159 -18 74 -27 183 -22
241 7 78 55 222 131 394 30 67 64 147 75 178 12 31 27 60 34 64 14 9 80 122
75 128 -2 1 -15 -4 -29 -13z m-404 -697 c-7 -19 -36 -19 -36 -1 0 8 5 27 11
43 l11 28 10 -28 c5 -15 7 -34 4 -42z"/>
<path d="M9394 7875 c0 -49 1 -71 3 -48 2 23 2 64 0 90 -2 26 -3 8 -3 -42z"/>
<path d="M7516 7921 c-3 -4 13 -25 35 -47 48 -46 252 -310 326 -421 28 -43 67
-98 85 -123 19 -25 40 -58 48 -74 8 -15 39 -50 68 -77 48 -44 59 -49 93 -47
26 1 51 12 74 31 30 24 35 35 35 69 0 90 -157 297 -339 448 -30 25 -68 56 -85
71 -61 50 -149 101 -224 131 -42 16 -85 34 -94 39 -9 5 -19 5 -22 0z m159 -82
c133 -71 462 -405 528 -536 32 -61 30 -95 -4 -114 -29 -15 -58 -5 -107 37 -41
35 -152 166 -152 179 0 4 -11 21 -25 39 -14 18 -25 36 -25 40 0 15 -198 294
-244 344 -35 37 -27 41 29 11z"/>
<path d="M8944 7907 c-3 -8 23 -42 58 -78 35 -36 89 -103 120 -150 145 -220
184 -329 214 -604 6 -48 9 -55 15 -35 4 14 7 42 8 63 1 43 13 48 30 11 12 -27
34 -57 85 -119 l28 -35 -35 -15 c-82 -34 -234 -67 -320 -70 -48 -1 -90 -5 -93
-8 -11 -11 105 -28 162 -23 65 6 188 36 249 62 22 9 51 21 65 26 l25 9 -22 17
c-12 9 -57 69 -99 132 -55 82 -78 125 -79 150 -9 150 -169 459 -318 615 -62
65 -83 77 -93 52z"/>
<path d="M9377 7633 c-18 -17 -4 -56 36 -97 23 -24 61 -64 85 -89 23 -24 42
-49 42 -54 0 -5 -24 -19 -53 -31 -52 -22 -107 -64 -107 -82 0 -15 16 -12 30 5
17 20 94 54 153 66 26 6 47 14 47 18 0 4 -45 53 -100 109 -55 55 -106 114
-113 131 -7 17 -16 28 -20 24z"/>
<path d="M7104 7611 c-52 -13 -141 -70 -203 -129 -103 -101 -242 -334 -261
-437 -34 -185 -34 -181 -12 -211 11 -16 36 -55 57 -86 24 -38 44 -58 56 -58
37 0 30 27 -33 118 l-62 92 23 93 c12 50 28 106 35 122 12 29 13 28 19 -35 3
-37 17 -89 32 -122 31 -67 102 -135 149 -142 17 -3 64 -10 104 -16 85 -14 102
-11 200 37 96 47 152 124 187 260 16 60 11 73 -27 73 -9 0 -33 15 -52 34 -28
26 -36 41 -36 69 0 48 41 73 96 58 30 -8 34 -8 30 7 -2 9 -10 42 -16 72 -17
76 -76 174 -118 194 -34 17 -114 20 -168 7z m79 -403 c98 -30 164 -156 123
-236 -19 -36 -105 -108 -158 -132 -66 -30 -173 -27 -235 6 -65 34 -101 71
-113 115 -16 59 -2 98 54 153 28 27 50 55 48 62 -1 7 10 16 25 21 25 9 28 6
47 -31 39 -77 112 -69 137 14 13 44 15 45 72 28z"/>
<path d="M7395 7545 c17 -9 39 -25 51 -36 11 -10 24 -19 28 -19 13 0 89 -63
163 -134 40 -38 76 -67 79 -63 9 9 -146 161 -220 217 -33 25 -69 43 -93 46
l-38 6 30 -17z"/>
<path d="M8660 7403 c0 -5 21 -26 48 -49 26 -23 83 -87 127 -142 70 -89 84
-102 111 -102 l31 0 -10 -52 c-5 -29 -22 -87 -38 -128 -46 -123 -79 -233 -79
-267 0 -20 9 -42 26 -60 14 -15 23 -23 20 -16 -22 42 12 216 54 283 9 14 24
50 34 80 33 95 64 160 79 160 12 0 96 -64 142 -110 12 -11 24 -20 28 -20 4 0
21 -15 37 -32 16 -18 30 -28 30 -22 1 63 -350 347 -535 433 -38 18 -78 37 -87
42 -10 5 -18 6 -18 2z"/>
<path d="M7770 7201 c0 -4 11 -23 25 -42 14 -19 33 -52 44 -74 11 -23 20 -32
20 -22 1 10 -17 47 -40 82 -40 63 -49 74 -49 56z"/>
<path d="M7860 7040 c3 -29 49 -178 49 -160 1 33 -27 142 -40 155 -5 5 -9 7
-9 5z"/>
<path d="M5815 6920 c-7 -11 43 -183 79 -275 30 -76 67 -187 64 -190 -2 -2
-75 1 -163 4 -249 12 -227 -5 38 -28 64 -6 126 -15 137 -21 40 -22 53 -1 26
43 -21 34 -127 358 -128 392 -1 54 -36 103 -53 75z"/>
<path d="M5920 6836 c0 -2 9 -6 20 -9 11 -3 18 -1 14 4 -5 9 -34 13 -34 5z"/>
<path d="M5980 6815 c0 -14 56 -37 145 -61 83 -22 132 -28 285 -34 175 -7 225
-2 192 19 -8 5 -78 9 -156 10 -160 2 -307 21 -386 50 -36 13 -80 22 -80 16z"/>
<path d="M8090 6689 c57 -49 148 -109 198 -131 26 -12 60 -30 75 -40 16 -11
30 -18 33 -16 2 3 -54 43 -126 89 -72 46 -147 94 -166 107 -49 31 -56 27 -14
-9z"/>
<path d="M8480 6450 c8 -5 20 -10 25 -10 6 0 3 5 -5 10 -8 5 -19 10 -25 10 -5
0 -3 -5 5 -10z"/>
<path d="M8989 6409 c12 -20 37 -53 57 -75 l36 -39 -38 55 c-20 30 -46 64 -56
75 -18 18 -18 16 1 -16z"/>
<path d="M8530 6420 c0 -12 73 -46 147 -68 l55 -17 19 -72 c22 -88 61 -172 93
-202 l24 -23 80 68 c44 37 78 72 75 78 -8 17 -124 115 -173 147 -25 16 -57 29
-73 29 -32 0 -145 30 -201 54 -45 19 -46 19 -46 6z"/>
<path d="M9060 6173 c1 -19 69 -73 93 -73 19 0 4 38 -23 58 -28 21 -70 30 -70
15z"/>
<path d="M8530 5683 c0 -5 11 -20 24 -32 14 -13 32 -39 41 -57 9 -19 22 -34
30 -34 27 0 16 35 -22 71 -52 48 -73 63 -73 52z"/>
<path d="M9030 5541 c-42 -57 -192 -193 -310 -279 -152 -113 -336 -231 -395
-254 -16 -6 -59 -27 -95 -46 -36 -19 -96 -50 -135 -69 -38 -18 -78 -38 -89
-44 -30 -17 -193 -69 -216 -69 -32 0 -15 -17 25 -24 24 -5 48 -1 78 12 23 10
54 22 68 25 14 4 38 17 54 29 15 12 70 41 122 64 l93 42 0 -53 c0 -71 23 -188
49 -248 12 -27 21 -50 21 -53 0 -5 -48 3 -135 23 -76 18 -161 51 -132 52 11 1
15 6 11 12 -4 7 -21 9 -40 6 -24 -4 -59 3 -116 24 -44 16 -83 29 -85 29 -12 0
5 -24 18 -25 9 -2 47 -17 85 -35 127 -60 149 -69 229 -94 162 -50 305 -52 305
-4 0 5 -12 8 -27 7 -52 -4 -61 1 -91 50 -36 57 -52 134 -52 241 0 67 3 79 23
98 13 12 27 22 31 22 4 0 45 23 92 50 47 28 86 50 88 50 9 0 209 138 283 197
154 119 333 316 286 312 -5 0 -24 -22 -43 -48z"/>
<path d="M6600 5192 c0 -10 33 -42 44 -42 4 0 22 -11 39 -24 53 -39 61 -41 45
-17 -7 12 -22 24 -33 27 -11 4 -37 20 -57 36 -21 16 -38 25 -38 20z"/>
<path d="M7370 4785 c-19 -23 -24 -90 -10 -153 15 -65 50 -119 70 -107 10 6 9
9 0 15 -7 4 -14 18 -16 31 -1 13 -7 47 -13 75 -6 32 -6 65 0 93 13 57 -3 80
-31 46z"/>
<path d="M3620 3463 l-55 -57 50 43 c43 37 73 71 63 71 -2 0 -28 -26 -58 -57z"/>
<path d="M3933 3392 c-81 -86 -81 -85 17 -123 117 -46 206 -34 310 41 64 47
61 49 -23 14 -128 -55 -225 -68 -293 -39 l-36 15 35 47 c36 51 71 113 65 118
-2 2 -35 -31 -75 -73z"/>
<path d="M9532 2918 c-7 -7 -12 -17 -12 -22 0 -23 -182 -290 -251 -369 -36
-41 -21 -57 19 -20 38 35 152 175 152 186 0 5 27 43 60 86 41 53 60 88 62 110
3 36 -10 49 -30 29z"/>
<path d="M2 593 c2 -26 9 -41 24 -48 11 -5 45 -27 75 -47 33 -22 71 -39 98
-42 24 -3 64 -17 89 -31 77 -43 55 -22 -31 29 -45 27 -119 78 -164 113 -46 34
-85 63 -88 63 -4 0 -5 -17 -3 -37z"/>
<path d="M10747 395 l-47 -95 34 -117 c19 -65 37 -133 41 -151 4 -17 11 -32
16 -32 5 0 9 102 9 245 0 135 -1 245 -2 245 -2 -1 -24 -43 -51 -95z"/>
<path d="M385 370 c3 -5 11 -10 16 -10 6 0 7 5 4 10 -3 6 -11 10 -16 10 -6 0
-7 -4 -4 -10z"/>
<path d="M8660 239 c69 -69 150 -151 180 -182 42 -45 61 -57 84 -57 26 0 28 2
16 13 -13 12 -52 47 -275 242 -125 109 -126 105 -5 -16z"/>
<path d="M535 282 c50 -31 106 -65 125 -74 63 -31 202 -65 335 -83 148 -19
228 -21 333 -10 61 7 72 5 72 -8 0 -12 8 -14 40 -10 52 7 52 -7 0 -48 -47 -38
-50 -49 -13 -49 19 0 41 14 73 47 47 48 129 104 214 146 25 12 46 25 46 30 0
13 -42 7 -74 -11 -50 -30 -233 -73 -326 -77 -50 -3 -274 18 -326 30 -12 3 -54
9 -95 15 -41 6 -94 16 -119 24 -25 7 -65 19 -90 27 -64 18 -221 80 -245 96
-11 7 -24 13 -29 13 -6 0 30 -26 79 -58z"/>
<path d="M10050 212 c0 -9 19 -33 41 -52 23 -19 50 -44 60 -54 10 -11 22 -17
25 -13 11 11 -5 37 -28 46 -26 10 -62 47 -71 74 -8 22 -27 22 -27 -1z"/>
<path d="M0 147 c0 -37 4 -67 9 -67 8 0 3 119 -5 129 -2 2 -4 -26 -4 -62z"/>
<path d="M10200 69 c0 -19 55 -72 70 -67 6 2 -7 21 -30 43 -25 24 -40 33 -40
24z"/>
<path d="M9531 14 c0 -11 3 -14 6 -6 3 7 2 16 -1 19 -3 4 -6 -2 -5 -13z"/>
</g>
</svg>
