<?xml version="1.0" standalone="no"?>
<!DOCTYPE svg PUBLIC "-//W3C//DTD SVG 20010904//EN"
 "http://www.w3.org/TR/2001/REC-SVG-20010904/DTD/svg10.dtd">
<svg version="1.0" xmlns="http://www.w3.org/2000/svg"
 width="1080.000000pt" height="1080.000000pt" viewBox="0 0 1080.000000 1080.000000"
 preserveAspectRatio="xMidYMid meet">
<metadata>
Created by potrace 1.14, written by Peter Selinger 2001-2017
</metadata>
<g transform="translate(0.000000,1080.000000) scale(0.100000,-0.100000)"
fill="#000000" stroke="none">
<path d="M1 10623 l1 -178 16 80 c9 44 19 82 24 83 4 2 8 15 8 28 0 40 -31
164 -41 164 -5 0 -9 -75 -8 -177z"/>
<path d="M2205 10765 c-33 -19 -72 -37 -87 -40 -40 -9 -35 -20 22 -47 l49 -23
1 -105 0 -106 -142 -140 c-136 -133 -233 -212 -322 -262 -186 -103 -370 -171
-485 -179 -72 -6 -74 -5 -68 16 3 12 0 21 -6 22 -7 1 -18 2 -26 3 -18 1 -143
175 -178 248 -28 57 -29 58 -63 52 -19 -3 -96 -14 -170 -23 l-135 -18 -40 29
c-22 16 -41 24 -43 19 -2 -6 -14 -4 -28 5 -13 9 -21 20 -19 25 7 11 -28 29
-57 29 -38 -1 -56 -23 -64 -78 -6 -48 -9 -52 -38 -56 -83 -13 -118 -17 -209
-22 l-97 -6 0 -4324 c0 -2378 3 -4324 8 -4324 4 0 36 9 72 21 86 27 219 57
400 89 76 14 188 -11 230 -50 17 -15 30 -27 30 -26 0 8 -46 96 -62 118 -39 56
-184 401 -222 530 -112 382 -150 632 -142 952 9 331 51 926 78 1096 17 103 17
539 0 660 -15 108 -44 268 -74 415 -45 217 -57 281 -58 294 0 9 11 5 33 -11
86 -67 441 -250 662 -343 50 -20 113 -47 141 -60 28 -12 100 -36 160 -54 60
-17 125 -36 144 -41 36 -11 75 -19 219 -45 211 -39 395 -115 427 -177 8 -16
20 -25 28 -22 17 6 46 -42 91 -150 36 -88 167 -392 191 -443 13 -29 39 -90
101 -238 13 -33 42 -96 62 -140 21 -44 53 -116 71 -160 19 -44 39 -83 44 -87
6 -4 8 -8 4 -8 -7 0 7 -37 49 -130 14 -30 32 -73 39 -94 8 -22 18 -44 22 -50
5 -6 19 -37 32 -69 l22 -57 -48 -57 c-26 -31 -56 -58 -65 -60 -14 -4 -12 -15
17 -95 19 -50 34 -95 34 -100 0 -26 55 -90 100 -115 30 -17 50 -35 50 -45 0
-23 6 -23 33 3 39 38 79 50 122 37 43 -14 66 -53 41 -72 -18 -13 -39 -66 -27
-66 13 0 155 -338 163 -390 2 -11 -15 -42 -40 -74 -59 -74 -128 -101 -262
-101 l-95 0 -3 -40 c-2 -22 4 -70 11 -107 11 -50 12 -70 3 -76 -6 -5 -51 -23
-101 -40 -136 -47 -214 -77 -225 -88 -6 -6 6 -37 35 -88 25 -43 45 -79 45 -81
0 -1 -34 -25 -76 -54 -71 -49 -107 -63 -231 -87 -44 -8 -28 -46 47 -118 58
-54 96 -78 213 -135 142 -70 305 -121 384 -121 23 0 35 -5 39 -17 16 -52 72
-132 92 -132 7 -1 23 -7 35 -15 12 -8 76 -23 142 -35 107 -18 125 -19 160 -6
46 16 46 8 -3 135 -36 91 -37 100 -36 215 1 76 7 144 18 185 31 124 49 180 58
180 4 0 8 -4 8 -9 0 -5 15 -23 33 -41 50 -50 120 -78 215 -86 l84 -7 -4 -128
c-3 -119 -2 -129 19 -151 51 -55 177 -283 268 -483 14 -33 31 -69 36 -80 5
-11 17 -47 28 -80 40 -123 73 -199 102 -237 43 -54 45 -54 252 22 32 11 77 23
101 26 37 5 44 4 48 -13 4 -13 23 -26 59 -37 30 -10 64 -24 77 -32 15 -10 28
-12 35 -6 7 5 26 12 42 16 17 4 57 23 90 43 33 19 67 38 74 42 18 9 33 59 26
87 -4 19 3 24 58 42 34 12 104 32 154 45 114 30 115 35 -38 -140 -102 -116
-151 -182 -208 -275 l-23 -38 70 0 69 0 124 147 c68 81 172 196 232 255 59 59
107 114 107 122 0 15 32 27 160 60 55 13 55 13 58 -10 2 -13 -2 -32 -7 -43 -6
-11 -11 -29 -11 -41 0 -44 -72 -120 -190 -200 -118 -79 -350 -266 -350 -282 0
-4 447 -7 1001 -6 l1001 3 148 290 c82 160 153 295 159 302 6 6 36 14 68 18
32 3 107 16 166 27 91 17 133 20 255 15 81 -3 185 -11 232 -16 123 -16 296
-39 445 -61 72 -10 186 -26 255 -35 69 -9 161 -23 205 -31 95 -18 134 -25 325
-58 162 -28 304 -76 468 -158 79 -40 100 -54 91 -64 -15 -18 -2 -38 70 -109
l61 -59 0 52 c0 48 3 54 30 70 17 9 33 25 36 35 3 10 15 17 30 17 13 0 24 1
24 3 0 5 -44 116 -61 155 -11 23 -26 42 -34 42 -9 0 -12 6 -9 15 9 23 -10 18
-36 -10 -13 -14 -30 -25 -37 -25 -15 0 -13 16 13 79 8 18 14 55 14 82 0 37 4
49 15 49 8 0 15 5 15 11 0 16 -79 248 -93 274 -16 30 -17 43 -1 56 19 15 17
32 -11 114 -13 38 -23 71 -21 72 3 4 127 -39 178 -61 20 -9 48 -28 61 -42 22
-23 31 -26 75 -22 l50 4 28 -54 c16 -31 37 -63 46 -73 10 -10 21 -31 24 -46 4
-16 17 -44 29 -63 12 -19 26 -46 30 -60 4 -14 18 -47 32 -75 27 -57 83 -213
83 -232 0 -7 -7 -13 -16 -13 -11 0 -14 -5 -10 -17 13 -32 104 -338 111 -370
20 -97 25 7 25 537 l0 570 -106 -3 c-85 -2 -107 1 -114 13 -5 9 -20 28 -35 44
-14 16 -37 46 -51 67 -19 31 -30 39 -55 39 -47 0 -89 26 -89 56 0 24 -36 86
-86 146 -21 26 -23 27 -29 8 -8 -25 -44 -26 -91 -4 -26 12 -33 21 -29 35 21
64 20 302 0 359 -9 25 -25 81 -35 126 -20 84 -51 140 -133 237 -32 39 -61 60
-124 89 -85 40 -150 96 -178 154 -17 36 -98 114 -118 114 -29 0 -24 -14 22
-59 43 -41 121 -146 121 -162 0 -3 -37 -9 -83 -11 -46 -3 -96 -12 -113 -21
-46 -24 -120 -103 -177 -188 l-51 -79 -14 67 c-7 36 -26 92 -43 124 -29 58
-36 93 -21 103 20 12 -36 233 -89 351 -12 28 -21 65 -20 84 2 32 -8 45 -147
180 -142 139 -152 151 -201 249 -28 56 -55 102 -59 102 -5 0 -28 44 -51 98
-23 53 -70 153 -104 222 -33 69 -65 134 -70 145 -10 20 -9 20 11 2 11 -11 25
-17 29 -14 13 8 50 -18 144 -104 46 -42 105 -94 131 -115 26 -22 113 -93 193
-159 81 -66 166 -133 189 -150 24 -16 88 -66 142 -110 139 -113 261 -205 272
-205 5 0 15 -7 22 -15 7 -8 19 -15 28 -15 16 0 -64 81 -126 127 -20 15 -57 45
-83 68 -141 125 -412 348 -485 400 -39 28 -71 55 -269 225 -44 38 -118 100
-165 137 -98 79 -173 166 -245 285 -40 66 -70 117 -84 143 -49 90 -74 116
-144 150 -39 19 -75 35 -79 35 -5 0 -22 10 -38 21 -23 18 -36 20 -73 15 -25
-4 -48 -3 -51 2 -5 9 24 54 57 87 10 10 16 26 14 36 -3 11 -3 19 0 19 2 0 48
-21 101 -46 174 -83 273 -113 407 -121 85 -5 102 -3 114 11 22 26 6 49 -29 42
-16 -3 -37 -3 -45 0 -24 10 -64 85 -75 145 -14 72 -14 208 1 225 6 8 30 23 53
34 22 10 64 33 91 49 28 17 57 34 65 38 14 8 99 58 145 86 79 49 226 167 306
248 130 130 210 258 224 359 l6 45 -34 -60 c-106 -187 -155 -253 -250 -336
-112 -99 -404 -313 -467 -342 -8 -4 -28 -16 -45 -27 -16 -11 -43 -25 -60 -32
-16 -6 -59 -27 -95 -46 -36 -19 -96 -50 -135 -69 -38 -18 -78 -38 -89 -44 -30
-17 -194 -69 -218 -69 -22 -1 -22 -1 -4 -15 25 -19 95 -19 138 -1 18 8 52 22
76 32 25 10 38 20 31 24 -14 10 -7 14 109 66 l92 42 0 -76 c0 -43 7 -106 15
-141 9 -35 13 -66 10 -69 -3 -3 2 -16 10 -29 15 -22 14 -23 -6 -23 -33 0 -189
43 -189 52 0 4 6 8 13 8 32 1 -23 20 -73 25 -30 4 -102 25 -159 46 -61 24
-117 39 -135 37 l-31 -3 47 -30 47 -30 -33 -35 c-19 -19 -44 -54 -56 -77 -12
-24 -25 -43 -29 -43 -7 0 -46 34 -128 111 -23 21 -46 39 -51 39 -40 0 8 -79
100 -164 64 -58 75 -73 65 -85 -10 -12 -9 -14 7 -8 18 7 19 3 13 -58 -4 -41
-2 -75 5 -90 13 -28 19 -30 36 -13 9 9 20 9 49 0 121 -37 144 -45 148 -52 2
-4 7 -27 11 -51 l7 -44 -48 48 c-65 65 -96 81 -121 62 -11 -8 -14 -15 -8 -15
14 0 109 -97 158 -160 34 -44 36 -49 41 -155 3 -61 2 -148 -2 -195 l-8 -85
-59 115 c-144 283 -370 631 -523 806 -64 72 -256 246 -284 256 -28 11 -23 -5
14 -38 57 -53 162 -168 236 -260 39 -49 84 -105 99 -124 71 -88 276 -408 365
-570 17 -30 43 -77 59 -105 25 -44 123 -244 155 -315 10 -23 11 -21 6 12 -4
29 -2 39 10 44 46 17 139 -52 157 -117 28 -97 -5 -194 -67 -194 -29 0 -30 -1
-22 -30 18 -61 6 -58 -64 16 -67 70 -138 133 -191 169 -12 8 -55 38 -95 65
-148 102 -217 145 -367 227 -33 18 -72 41 -87 52 -22 15 -30 16 -42 6 -8 -7
-15 -21 -15 -31 0 -38 -51 -199 -63 -199 -12 0 -29 52 -23 74 11 44 -40 247
-95 376 -23 54 -180 304 -199 315 -5 3 -62 65 -127 138 -65 73 -131 147 -148
166 -43 47 -243 229 -289 263 -21 15 -48 28 -59 28 -15 0 -3 -16 48 -62 144
-134 319 -316 390 -407 19 -25 43 -52 131 -150 56 -63 154 -197 154 -210 0 -6
12 -30 26 -53 46 -72 84 -174 113 -306 16 -70 34 -139 40 -155 8 -21 7 -38 -4
-70 -9 -23 -16 -44 -16 -47 -8 -38 34 -40 58 -2 31 50 46 64 54 50 5 -8 10 -1
14 18 23 107 63 164 116 164 31 0 99 -34 99 -50 0 -4 12 -12 28 -18 38 -13
104 -59 292 -200 158 -118 154 -114 147 -153 -31 -177 -63 -274 -142 -434 -46
-92 -64 -101 -137 -64 -118 60 -120 62 -176 236 -28 87 -64 208 -81 268 -16
61 -37 124 -45 140 -9 17 -16 41 -16 55 -1 24 -1 24 -12 5 -8 -12 -11 -54 -10
-107 2 -49 -1 -88 -5 -88 -4 0 -39 16 -78 35 l-70 35 -3 -23 c-2 -15 23 -68
65 -141 37 -64 83 -144 101 -177 46 -83 152 -377 152 -422 0 -18 11 -26 61
-42 57 -19 63 -24 91 -75 50 -90 138 -266 138 -275 0 -4 -27 21 -59 57 -33 36
-100 94 -148 129 -48 35 -92 67 -98 71 -44 34 -173 112 -212 129 -26 11 -76
34 -109 50 -34 16 -66 29 -71 29 -6 0 -25 7 -43 16 -18 9 -46 20 -64 24 -17 5
-71 20 -121 35 -254 77 -551 106 -858 85 l-188 -13 -30 29 c-17 16 -53 63 -81
104 -28 41 -55 74 -60 72 -6 -1 -45 -23 -88 -48 -87 -50 -210 -166 -241 -227
-19 -37 -20 -37 -49 -22 -24 12 -30 22 -30 48 1 27 12 42 80 102 43 39 129
101 192 138 62 37 114 69 115 71 2 1 -9 31 -23 66 -29 72 -63 217 -64 271 0
19 -4 39 -9 45 -5 5 -11 90 -14 189 -4 138 -9 197 -24 250 -84 294 -95 349
-95 455 -1 130 19 217 73 321 73 139 220 257 364 289 66 15 192 15 244 -1 31
-9 47 -9 67 -1 13 7 35 12 47 12 20 1 20 2 4 11 -9 6 -15 14 -12 19 3 4 -16
26 -42 48 -106 89 -440 442 -419 442 6 0 154 -140 308 -293 44 -42 82 -77 85
-77 4 0 4 2 2 5 -2 3 -17 21 -34 41 -16 20 -57 62 -90 94 -196 190 -347 345
-440 454 -187 219 -316 556 -317 831 0 41 -3 75 -8 75 -11 0 -20 -65 -20 -152
l0 -78 -47 6 c-134 17 -307 95 -405 183 -16 14 -28 27 -28 31 0 3 26 11 58 19
31 7 84 28 117 46 62 34 205 172 205 197 0 8 11 25 24 37 13 13 27 37 30 54 3
18 22 54 41 81 42 59 43 66 11 66 -47 0 -351 123 -388 157 -10 9 -43 26 -73
39 -83 33 -162 83 -210 134 -84 87 -156 180 -143 184 64 20 209 70 233 80 217
95 278 132 371 224 53 52 154 187 154 206 0 19 -26 -2 -75 -61 -57 -69 -210
-203 -232 -203 -13 0 -15 17 -18 115 -2 71 -5 85 -15 85 -5 0 -13 -18 -16 -40
-4 -22 -11 -43 -16 -46 -7 -4 -6 -9 0 -13 12 -7 23 -114 13 -129 -13 -20 -173
-89 -301 -130 -70 -22 -179 -46 -185 -40 -5 5 100 211 154 303 27 44 70 118
96 163 32 55 70 102 109 138 50 44 57 54 42 60 -27 10 -94 -42 -152 -120 -97
-128 -141 -210 -408 -756 -41 -84 -83 -161 -160 -292 -85 -147 -234 -324 -332
-395 -37 -26 -83 -62 -103 -79 -45 -39 -172 -111 -214 -122 -38 -10 -47 -30
-15 -36 13 -2 50 -9 83 -16 61 -11 156 -38 255 -71 153 -51 339 -60 520 -25
41 8 77 13 79 10 2 -2 -10 -31 -28 -63 -64 -120 -75 -188 -75 -456 -1 -348 9
-500 50 -745 35 -212 78 -569 70 -577 -2 -3 -13 8 -23 24 -10 15 -26 37 -36
48 -23 24 -147 181 -277 349 -118 153 -253 308 -388 446 -141 142 -225 255
-294 393 -23 45 -43 84 -45 86 -7 10 -34 -26 -63 -87 -41 -86 -58 -167 -66
-315 -4 -65 -10 -114 -14 -110 -8 9 -201 508 -208 538 -7 31 -53 149 -63 161
-8 10 -56 132 -99 250 -10 28 -23 59 -29 70 -6 10 -34 80 -62 154 -29 74 -60
158 -71 185 -11 28 -34 91 -53 140 -39 105 -86 225 -295 765 -84 217 -159 411
-166 430 -7 19 -33 89 -59 155 -26 66 -97 254 -160 418 -62 163 -131 329 -154
368 -22 39 -38 75 -35 80 3 5 23 9 45 9 46 0 56 27 12 32 -26 3 -28 6 -29 51
0 30 4 51 12 54 7 2 15 15 18 28 3 13 13 30 21 39 9 8 61 105 116 215 56 111
106 201 112 201 6 0 8 3 4 6 -3 3 27 54 67 113 40 58 71 111 69 116 -2 6 11
16 29 23 18 6 38 22 43 34 8 19 19 24 64 26 30 2 58 -1 64 -7 6 -6 23 -4 48 4
22 8 43 15 47 16 4 1 18 6 32 11 45 18 341 102 395 113 11 2 56 13 100 24 44
11 116 27 160 36 185 37 288 70 297 94 1 6 39 47 83 93 44 46 111 118 148 161
l67 78 0 79 c0 64 -3 80 -15 80 -8 0 -15 5 -15 10 0 16 -40 51 -51 45 -5 -4
-8 -1 -7 7 3 11 -109 13 -622 15 l-625 1 -60 -33z m-1752 -561 c40 -21 90 -60
147 -116 25 -23 94 -86 154 -138 237 -207 284 -254 412 -414 43 -54 89 -111
100 -125 12 -14 36 -53 54 -86 18 -33 46 -76 64 -95 98 -110 183 -289 393
-834 47 -121 94 -243 105 -271 10 -27 34 -90 53 -140 18 -49 42 -112 53 -140
45 -117 255 -666 279 -730 31 -85 104 -276 185 -485 95 -246 104 -270 138
-365 51 -143 121 -325 362 -950 44 -115 84 -214 89 -220 4 -5 15 -37 24 -70
10 -33 41 -114 70 -180 69 -157 120 -280 135 -330 7 -22 28 -76 47 -120 20
-44 41 -100 48 -125 7 -25 52 -144 100 -265 154 -390 153 -387 101 -500 -17
-39 -21 -53 -10 -44 36 30 66 123 64 200 -1 42 2 47 33 63 33 18 34 18 85 -8
49 -25 51 -27 41 -54 -6 -15 -20 -38 -32 -52 -53 -60 -59 -72 -17 -35 25 21
51 47 58 57 21 29 29 22 46 -47 21 -82 20 -116 -1 -141 -10 -11 -59 -65 -108
-119 -153 -169 -191 -228 -78 -121 33 31 43 36 43 22 0 -9 -7 -24 -15 -32 -21
-22 -19 -50 11 -124 14 -36 36 -89 48 -119 24 -61 37 -71 51 -39 15 33 32 32
39 -3 11 -55 7 -112 -15 -209 -37 -164 -37 -167 27 -293 31 -62 62 -119 70
-128 8 -8 14 -21 14 -27 0 -6 43 -34 95 -62 52 -28 96 -54 99 -58 5 -9 -21
-249 -29 -262 -11 -18 -30 -10 -98 43 -37 28 -76 59 -88 67 -21 15 -21 18 -9
127 12 111 7 172 -10 128 l-8 -20 -7 20 c-4 11 -23 52 -41 92 -19 40 -34 75
-34 78 0 23 -45 94 -62 99 -12 3 -64 -1 -115 -9 -119 -18 -281 -21 -296 -6 -6
6 -9 12 -6 13 2 2 18 13 36 26 18 12 36 22 41 22 11 0 45 39 61 70 11 23 8 38
-20 120 -41 123 -44 126 -100 104 -57 -21 -103 -28 -135 -20 -24 6 -25 9 -12
24 8 9 18 25 21 34 5 13 -5 10 -39 -11 -80 -51 -154 -35 -196 42 -20 38 -24
89 -5 86 23 -4 135 51 226 111 71 46 48 50 -47 7 -137 -62 -199 -87 -215 -87
-16 0 -67 58 -67 77 0 5 19 7 48 4 53 -7 50 -7 117 4 50 8 138 46 150 64 5 9
-87 -13 -106 -25 -11 -7 -145 -7 -166 0 -15 5 -38 41 -72 111 -28 58 -51 109
-51 114 0 5 -15 42 -34 83 -32 70 -65 145 -126 288 -15 36 -37 88 -50 115 -34
75 -88 200 -125 290 -18 44 -45 107 -60 140 -15 33 -40 89 -55 125 -50 121
-142 334 -235 545 -115 260 -156 365 -299 759 -163 446 -356 956 -372 981 -8
12 -17 43 -21 70 -6 45 -69 204 -303 760 -51 121 -130 310 -175 420 -46 110
-115 275 -154 368 -38 92 -75 184 -81 205 -5 21 -42 117 -81 213 -46 113 -80
217 -99 299 -15 69 -45 170 -66 225 -35 94 -38 110 -47 265 -11 204 -12 345
-4 520 3 74 6 143 6 153 1 21 13 22 54 1z m391 -2489 c37 -88 76 -178 86 -200
30 -64 140 -325 140 -330 0 -3 29 -69 64 -148 72 -159 240 -543 261 -597 37
-93 65 -169 65 -174 0 -3 11 -29 24 -58 40 -85 176 -398 176 -403 0 -3 20 -49
44 -102 62 -136 198 -452 235 -546 17 -43 45 -104 61 -137 32 -63 39 -93 18
-72 -7 7 -24 12 -38 12 -14 0 -30 4 -35 8 -20 18 -133 53 -255 80 l-125 28 -3
46 c-2 37 2 48 15 52 10 4 33 38 52 77 19 39 40 73 48 76 7 3 10 9 7 14 -3 6
-1 15 4 22 5 7 8 20 7 29 -3 18 -68 103 -95 125 -8 7 -12 13 -8 13 4 0 -15 23
-42 50 -27 28 -46 50 -43 50 2 0 -31 33 -74 74 -101 96 -105 100 -141 126 -17
13 -28 28 -25 33 3 6 2 7 -3 4 -5 -3 -38 21 -72 53 -34 32 -69 61 -78 64 -8 3
-13 9 -10 14 2 4 -7 13 -22 20 -15 6 -47 30 -71 52 -24 22 -47 40 -52 40 -4 0
-16 11 -27 25 -11 13 -22 22 -25 19 -2 -3 -14 6 -25 20 -11 15 -24 26 -28 26
-5 0 -30 19 -57 43 -53 48 -91 80 -194 165 -40 33 -79 66 -86 74 -8 7 -26 22
-41 33 -68 49 -95 73 -89 79 3 3 -1 6 -10 6 -9 0 -17 4 -17 10 0 5 -3 9 -7 8
-5 0 -15 2 -23 5 -8 3 -24 7 -35 9 -17 3 -20 11 -21 63 0 33 -3 67 -6 75 -4 8
-9 73 -12 144 -6 145 -6 144 -94 200 -34 21 -42 32 -42 56 0 23 -4 28 -20 25
-18 -3 -20 2 -20 48 0 41 4 55 20 65 11 7 20 19 20 26 0 8 8 17 18 21 9 3 62
63 117 132 55 69 139 166 187 215 l87 88 85 0 c54 0 86 4 86 11 0 5 5 7 10 4
6 -3 10 1 10 9 0 9 3 16 8 16 4 0 13 14 21 31 7 17 17 27 20 22 4 -4 38 -80
75 -168z m3491 -322 c71 -76 155 -184 149 -194 -3 -6 132 -140 189 -186 33
-28 34 -54 6 -131 -12 -31 -30 -84 -40 -117 -28 -84 -112 -251 -157 -308 -31
-41 -48 -53 -102 -72 -36 -12 -87 -31 -115 -43 -153 -63 -525 -64 -670 -2 -11
5 -33 11 -50 14 -139 27 -189 56 -140 81 80 41 241 161 342 255 40 38 73 72
73 76 0 4 11 19 24 33 20 22 122 182 176 276 10 17 43 73 75 125 32 52 76 132
98 177 29 61 45 83 59 83 10 0 47 -30 83 -67z m285 -968 c0 -53 140 -285 194
-320 12 -8 38 -36 56 -63 18 -26 47 -62 63 -79 l31 -33 -19 -132 c-27 -198
-20 -614 20 -1173 25 -337 17 -512 -31 -669 -13 -44 -26 -90 -28 -101 -1 -11
-48 -110 -103 -220 -90 -182 -203 -445 -203 -475 0 -9 -14 -10 -50 -5 -56 8
-43 17 -165 -124 -64 -74 -73 -80 -108 -81 -36 0 -39 -3 -59 -47 -11 -27 -45
-85 -75 -130 -41 -61 -66 -87 -96 -102 -23 -12 -44 -17 -48 -13 -11 12 -39
104 -39 126 0 12 -8 52 -17 90 -15 56 -27 78 -65 120 -27 27 -48 59 -48 71 0
11 -7 34 -16 50 -9 17 -20 44 -26 60 -11 37 -38 134 -38 140 0 3 27 35 60 71
34 37 65 74 69 83 8 15 0 60 -34 176 -14 49 -16 51 -99 92 -79 39 -85 40 -106
26 -21 -15 -23 -14 -34 3 -6 10 -31 78 -57 149 -68 194 -152 408 -165 422 -11
12 -58 136 -79 213 -7 25 -54 152 -105 284 -68 177 -94 256 -100 310 -12 106
-4 321 15 405 16 69 41 141 49 141 2 0 26 -41 55 -91 66 -116 132 -199 286
-357 123 -128 289 -317 367 -421 24 -31 77 -98 118 -149 41 -51 87 -109 102
-128 14 -19 42 -52 61 -73 65 -73 97 -211 79 -341 -5 -36 -6 -72 -2 -80 10
-18 17 8 23 85 3 28 10 68 16 90 16 59 14 343 -3 423 -24 111 -52 277 -87 522
-18 124 -22 195 -23 485 -1 301 1 349 18 420 29 126 62 178 141 227 27 17 66
42 85 55 32 21 194 91 213 93 4 0 7 -11 7 -25z m1030 -1045 c0 -5 -2 -10 -4
-10 -3 0 -8 5 -11 10 -3 6 -1 10 4 10 6 0 11 -4 11 -10z m2215 -1088 c-8 -2
-23 2 -34 7 -11 6 -33 11 -50 11 l-31 0 37 52 37 52 27 -60 c21 -45 24 -60 14
-62z m-2795 -182 c0 -29 -4 -40 -15 -40 -8 0 -15 3 -15 7 0 9 23 73 27 73 2 0
3 -18 3 -40z m3192 -112 c29 -41 62 -101 139 -253 79 -156 214 -463 207 -471
-2 -2 -32 15 -66 36 -35 22 -82 50 -105 61 -80 40 -127 74 -131 94 -2 11 -12
85 -21 164 -9 79 -25 187 -36 240 -32 157 -32 161 -21 161 6 0 21 -15 34 -32z
m-7971 -385 c-11 -180 -17 -215 -30 -196 -10 15 -62 48 -146 93 -107 56 -112
60 -88 77 10 8 16 16 13 18 -3 3 22 35 55 71 59 64 103 95 156 107 15 4 30 16
34 29 15 48 17 -15 6 -199z m4493 -389 c13 -5 11 -11 -12 -33 -15 -15 -39 -50
-54 -79 -20 -36 -34 -52 -48 -52 -29 0 -25 16 14 62 19 22 42 55 51 74 16 35
22 38 49 28z m-1031 -96 c28 -79 34 -132 17 -158 -11 -17 -23 9 -61 127 -19
61 -21 76 -10 99 15 34 22 26 54 -68z m867 -33 c0 -10 -10 -15 -27 -15 -52 -1
-103 -33 -157 -100 -52 -66 -86 -87 -86 -54 0 9 17 32 38 50 21 18 54 55 73
83 l34 50 63 1 c49 0 62 -3 62 -15z m-758 -132 c26 -30 36 -55 64 -163 14 -58
32 -114 39 -125 18 -28 29 -85 17 -85 -10 0 -72 151 -107 260 -10 30 -24 72
-31 93 -13 40 -6 48 18 20z m458 -55 c41 -13 58 -48 23 -48 -29 0 -110 -60
-138 -102 -60 -91 -147 -168 -190 -168 -30 0 -14 27 28 45 55 23 177 175 207
258 11 31 15 32 70 15z m-921 -176 c17 -46 31 -92 31 -101 0 -33 -37 -52 -103
-55 -27 -1 -31 4 -57 77 -45 123 -45 117 -17 117 13 0 42 13 63 29 21 16 42
26 46 22 4 -3 21 -43 37 -89z m4912 -92 c5 0 3 -11 -3 -25 -13 -29 -40 -30
-44 -1 -4 27 5 39 23 32 8 -3 19 -6 24 -6z m234 -16 c28 -9 85 -30 128 -47 84
-32 90 -42 61 -98 l-15 -31 -48 45 c-45 42 -150 92 -175 84 -6 -2 25 -26 68
-53 131 -83 325 -218 406 -285 67 -55 88 -80 143 -174 71 -119 117 -208 117
-225 0 -14 -103 -13 -119 3 -10 8 -15 9 -18 1 -2 -6 -9 -18 -16 -27 -15 -20
-188 -67 -249 -68 -23 0 -99 -14 -168 -31 l-124 -31 -156 16 -155 16 -28 33
c-15 18 -34 54 -42 80 -13 44 -12 54 12 140 36 132 73 319 84 417 9 89 36 146
97 204 25 24 32 26 56 17 23 -8 32 -7 53 10 31 24 26 24 88 4z m-2089 -23 c40
-11 78 -28 85 -37 7 -9 38 -28 68 -44 39 -19 112 -81 235 -199 98 -94 185
-180 193 -191 8 -11 34 -100 59 -197 56 -216 62 -324 24 -458 -27 -97 -101
-243 -144 -283 -39 -36 -158 -72 -239 -72 l-58 0 7 36 c17 91 -66 381 -146
512 -16 26 -38 67 -50 91 -11 24 -38 63 -59 86 -22 24 -49 61 -60 83 -11 22
-35 51 -53 63 -18 13 -60 48 -93 79 -145 137 -379 225 -645 245 l-95 7 -3 67
c-3 61 0 69 28 108 24 32 40 44 68 48 20 4 48 10 62 15 52 19 229 50 330 59
58 5 175 8 260 6 125 -2 169 -6 226 -24z m604 -163 c33 -36 25 -56 -10 -22
-16 16 -30 32 -30 37 0 14 19 7 40 -15z m-2455 -77 c27 -4 49 -12 48 -17 -1
-6 15 -21 36 -32 51 -29 58 -48 20 -56 -15 -3 -56 -30 -89 -61 -33 -30 -64
-55 -69 -55 -5 0 -12 16 -15 35 -10 53 -55 97 -120 119 -31 11 -56 23 -56 27
0 18 143 60 175 52 10 -3 42 -9 70 -12z m172 -97 c-3 -3 -12 -4 -19 -1 -8 3
-5 6 6 6 11 1 17 -2 13 -5z m5231 -182 c8 -15 5 -92 -3 -92 -12 0 -35 14 -35
21 0 4 7 6 15 3 21 -8 20 59 -1 76 -13 11 -16 10 -21 -8 -3 -12 -9 -22 -14
-22 -12 0 -11 4 2 34 10 20 15 23 30 15 10 -5 23 -17 27 -27z m-81 -186 c-43
-99 -45 -113 -25 -151 8 -16 13 -36 11 -42 -6 -18 -32 -16 -39 2 -4 8 -9 15
-13 15 -12 0 -53 -89 -46 -100 8 -14 -14 -41 -78 -91 -49 -39 -87 -50 -87 -26
0 8 9 22 20 32 10 9 31 48 46 86 17 44 33 69 43 69 9 1 26 21 38 45 18 37 20
45 7 56 -16 13 -18 28 -5 48 8 13 12 13 26 1 14 -12 18 -12 26 1 22 35 69 160
69 186 1 27 1 27 21 -11 l21 -38 -35 -82z m-197 -42 c12 -31 13 -84 2 -84 -16
0 -32 24 -32 48 0 21 -3 23 -22 17 -58 -17 -66 -17 -78 4 -8 17 -8 22 2 26 26
8 54 13 86 14 26 1 34 -4 42 -25z m-613 -136 c35 -15 68 -51 99 -108 31 -57
46 -83 115 -200 64 -111 77 -140 84 -197 5 -42 5 -42 -43 -64 -26 -11 -99 -36
-162 -54 -128 -37 -281 -90 -322 -111 -15 -8 -38 -14 -51 -14 -14 0 -55 -11
-91 -25 -64 -24 -126 -33 -126 -17 0 4 -23 45 -50 91 -28 46 -50 91 -50 99 0
14 -136 283 -179 352 -11 19 -21 41 -21 48 0 14 47 37 175 86 206 78 343 109
473 108 53 0 90 4 86 9 -8 13 30 11 63 -3z m843 -96 c0 -10 -18 -118 -26 -152
-5 -23 -6 -23 -16 -6 -6 11 -7 43 -3 82 6 60 5 64 -14 64 -12 0 -21 5 -21 10
0 6 18 10 40 10 22 0 40 -4 40 -8z m-1890 -97 c34 -31 310 -638 310 -682 0
-14 -7 -26 -17 -29 -10 -3 -26 -10 -35 -15 -10 -5 -29 -9 -43 -9 -29 0 -38 17
-186 354 -43 99 -99 215 -124 260 -51 90 -55 126 -15 138 35 10 89 2 110 -17z
m1726 -682 c51 -51 185 -268 226 -366 6 -15 5 -16 -11 -7 -25 13 -61 59 -61
76 0 8 -2 14 -4 14 -2 0 -11 3 -19 6 -12 4 -17 -7 -22 -48 -4 -29 -11 -62 -15
-73 -5 -13 -1 -29 12 -48 l19 -27 -35 4 c-20 3 -43 9 -53 14 -53 28 -309 112
-341 112 -21 0 -74 9 -118 19 -135 32 -225 50 -339 66 -147 22 -164 28 -214
79 l-43 44 53 11 c125 25 428 82 617 116 l203 36 44 -25 c54 -32 57 -32 45 0
-13 33 -13 34 4 34 8 0 31 -17 52 -37z m343 -692 c-6 -2 -22 9 -35 25 -36 44
-29 52 11 14 20 -20 31 -36 24 -39z"/>
<path d="M3620 3463 l-55 -57 50 43 c43 37 73 71 63 71 -2 0 -28 -26 -58 -57z"/>
<path d="M3967 3435 c-32 -41 -71 -82 -88 -90 -16 -9 -29 -20 -29 -26 0 -5 35
-26 77 -47 65 -31 87 -36 142 -35 75 0 117 16 205 76 66 44 63 61 -5 27 -106
-54 -237 -79 -302 -56 -51 17 -54 23 -25 54 35 37 90 138 86 157 -2 10 -24
-11 -61 -60z"/>
<path d="M8824 1650 c-88 -19 -332 -97 -351 -112 -8 -7 -2 -29 24 -84 19 -41
36 -89 38 -106 1 -18 8 -34 15 -36 18 -6 109 15 232 55 59 19 112 32 118 28
36 -22 -22 -64 -165 -118 -97 -37 -113 -52 -95 -87 6 -10 10 -30 10 -45 0 -26
53 -119 82 -142 12 -10 30 -5 99 29 46 22 167 68 269 102 175 58 185 62 188
88 2 18 -27 82 -94 207 -117 220 -138 242 -229 240 -33 -1 -97 -9 -141 -19z"/>
<path d="M9790 10787 c0 -11 56 -161 79 -212 5 -11 16 -38 24 -61 15 -40 15
-42 -11 -75 -29 -37 -31 -40 -94 -144 -23 -38 -45 -72 -49 -75 -3 -3 -9 -15
-13 -27 -4 -13 -12 -23 -17 -23 -6 0 -8 -4 -5 -8 3 -5 -3 -18 -12 -28 -10 -10
-19 -22 -20 -27 -4 -19 -33 -66 -42 -69 -6 -2 -12 -14 -13 -27 -1 -12 -11 -34
-24 -47 -12 -13 -20 -24 -18 -24 2 0 -7 -22 -20 -49 -30 -59 -30 -63 -5 -79
15 -9 20 -23 20 -58 0 -36 12 -69 61 -163 l62 -118 157 1 c122 2 162 5 176 16
26 23 102 19 122 -5 10 -11 25 -21 35 -23 29 -5 78 -38 69 -47 -4 -5 -1 -5 5
-1 12 7 89 -32 126 -62 9 -8 17 -12 17 -8 0 4 12 -1 28 -12 15 -10 42 -24 59
-31 18 -8 30 -17 27 -22 -3 -5 6 -9 20 -9 14 0 26 -4 26 -10 0 -5 3 -9 8 -9
14 3 72 -23 72 -33 0 -5 5 -6 10 -3 6 3 10 1 10 -4 0 -6 3 -10 8 -9 4 1 31
-10 60 -25 30 -15 58 -27 63 -27 5 0 9 331 9 825 l0 825 -505 0 c-399 0 -505
-3 -505 -13z"/>
<path d="M6042 10237 c-9 -10 6 -48 59 -163 85 -179 128 -270 162 -344 33 -73
157 -370 157 -378 0 -3 13 -40 29 -81 17 -42 33 -85 36 -95 3 -12 9 -16 15
-10 26 27 -115 415 -263 724 -25 52 -72 153 -104 224 -32 71 -63 131 -69 133
-6 2 -16 -2 -22 -10z"/>
<path d="M5958 10189 c-7 -11 -29 -30 -48 -42 -75 -46 -183 -138 -283 -241
-49 -50 -100 -103 -115 -118 -14 -15 -23 -30 -19 -34 4 -4 51 36 104 89 112
109 150 144 213 195 25 21 47 40 48 45 2 4 10 7 18 7 15 0 19 -31 5 -45 -21
-23 -164 -406 -177 -475 -8 -41 -24 -106 -35 -145 -18 -59 -20 -86 -16 -170 9
-150 4 -153 -79 -70 -38 39 -84 91 -102 118 -48 69 -84 59 -47 -14 9 -16 14
-33 11 -37 -2 -4 4 -39 15 -77 11 -39 23 -81 26 -94 14 -56 122 -185 152 -179
21 4 27 46 8 54 -24 9 -99 111 -151 203 -25 46 -45 85 -43 87 1 2 37 -30 79
-71 71 -68 160 -125 194 -125 19 0 18 13 -6 53 -27 45 -39 226 -21 319 39 202
61 274 134 432 18 37 32 71 32 75 0 11 77 145 104 181 29 39 51 78 51 91 0 18
-40 9 -52 -12z"/>
<path d="M5459 9718 c-12 -23 -12 -23 10 -4 23 21 26 26 11 26 -5 0 -15 -10
-21 -22z"/>
<path d="M8947 9548 c-2 -7 14 -48 35 -90 21 -42 38 -79 38 -82 0 -3 18 -44
41 -93 104 -224 203 -546 265 -868 8 -44 22 -105 30 -136 7 -30 14 -65 14 -78
0 -12 4 -20 9 -16 14 8 4 118 -30 305 -49 273 -121 507 -247 800 -102 239
-140 301 -155 258z"/>
<path d="M8885 9503 c-35 -97 -110 -253 -159 -333 -53 -85 -64 -103 -79 -135
-8 -16 -21 -36 -30 -44 -25 -20 -21 -39 17 -85 52 -64 123 -235 165 -401 42
-164 64 -315 75 -508 4 -77 18 -113 39 -100 17 10 1 322 -23 448 -22 113 -27
132 -78 295 -36 116 -98 258 -123 286 -11 11 -19 27 -19 35 0 16 36 91 62 129
84 124 177 346 163 390 -3 11 -1 29 5 40 7 12 9 24 7 26 -3 3 -13 -16 -22 -43z"/>
<path d="M7288 9408 c-14 -18 -31 -44 -38 -58 -7 -14 -38 -51 -68 -83 -63 -65
-195 -136 -295 -157 -32 -6 -57 -14 -54 -16 9 -10 165 19 207 38 25 11 63 29
85 38 50 22 126 89 156 136 12 20 25 32 29 27 7 -7 41 -150 102 -428 11 -49
19 -118 19 -153 0 -48 3 -64 15 -69 27 -10 35 19 30 107 -10 152 -59 387 -108
517 -12 32 -24 73 -27 92 -8 46 -23 48 -53 9z"/>
<path d="M4770 9051 c0 -41 43 -269 60 -316 29 -81 32 -113 12 -133 -20 -20
-69 -159 -77 -219 -3 -21 -10 -60 -15 -88 -23 -123 -39 -455 -23 -455 11 0 23
54 23 101 0 22 5 25 33 26 67 2 302 35 311 44 18 16 -7 28 -69 31 l-60 3 45
22 c58 29 100 30 107 3 6 -23 29 -26 52 -7 9 7 50 21 91 32 41 10 83 22 93 27
23 12 22 45 -2 58 -11 5 -25 16 -33 23 -7 7 -45 38 -84 69 -84 67 -184 173
-231 246 -18 28 -38 52 -43 52 -29 0 -57 73 -111 290 -26 103 -26 103 26 75
66 -35 149 -50 197 -36 21 7 38 16 38 21 0 12 0 12 -76 16 -62 3 -172 40 -205
70 -9 8 -20 26 -23 40 -7 28 -36 33 -36 5z m118 -521 c33 -114 78 -211 139
-299 24 -35 41 -67 36 -72 -8 -8 -183 -87 -266 -120 l-49 -19 7 52 c36 282 93
525 116 500 4 -4 12 -23 17 -42z"/>
<path d="M6499 9039 c16 -6 28 -6 35 1 7 7 -1 10 -24 9 -33 0 -34 -1 -11 -10z"/>
<path d="M6500 9007 c-14 -7 -25 -19 -25 -27 0 -9 10 -16 25 -16 14 -1 40 -6
57 -12 47 -15 53 5 12 39 -40 33 -37 32 -69 16z"/>
<path d="M5238 8941 c-13 -11 -19 -24 -15 -34 8 -21 36 -22 43 -2 8 19 45 19
130 -1 54 -12 73 -13 94 -3 23 11 19 13 -60 29 -140 29 -167 30 -192 11z"/>
<path d="M8528 8948 c-7 -7 -31 -25 -54 -41 -153 -104 -414 -428 -414 -514 0
-33 13 -23 62 50 76 113 224 290 332 399 58 59 106 110 106 113 0 9 -18 5 -32
-7z"/>
<path d="M6236 8904 c-87 -60 -165 -173 -256 -374 -31 -69 -69 -164 -83 -211
-26 -85 -28 -86 -62 -92 -26 -4 -41 -1 -58 13 -60 51 -219 208 -230 226 -7 12
-31 43 -54 70 -50 58 -199 259 -206 277 -2 6 -8 9 -12 4 -5 -4 -3 -13 3 -19 7
-7 12 -19 12 -28 0 -9 9 -25 20 -35 11 -10 20 -22 20 -27 0 -5 12 -27 27 -51
15 -23 32 -50 38 -59 45 -77 153 -213 249 -315 l77 -82 -37 -16 c-20 -8 -44
-15 -53 -15 -21 0 -36 -11 -44 -32 -8 -23 22 -39 60 -33 23 4 37 -3 82 -46 50
-46 55 -56 63 -108 4 -31 5 -139 2 -241 -5 -141 -2 -209 10 -287 l15 -102 -35
-68 c-20 -37 -42 -72 -50 -76 -48 -27 -159 -333 -204 -562 -7 -33 -16 -82 -22
-110 -15 -72 -4 -228 21 -306 77 -243 471 -613 1139 -1069 146 -99 103 -47
-73 90 -54 41 -140 110 -192 153 -53 42 -98 77 -102 77 -3 0 -26 19 -50 43
-40 38 -65 59 -187 152 -60 46 -280 259 -338 328 -125 148 -165 235 -173 372
-6 104 2 121 53 106 17 -5 82 -12 145 -16 63 -3 145 -13 183 -21 38 -7 72 -11
75 -8 3 2 0 19 -7 37 -17 43 -132 387 -132 394 0 9 50 -7 113 -37 34 -16 85
-34 112 -40 28 -7 66 -16 85 -22 55 -15 412 -28 428 -15 23 19 -13 25 -163 26
-161 2 -291 19 -394 53 -73 23 -180 80 -186 98 -10 31 -31 43 -48 26 -13 -14
-12 -25 9 -98 13 -46 34 -105 47 -133 13 -27 30 -68 37 -90 7 -22 21 -64 31
-93 11 -30 19 -56 19 -59 0 -3 -24 -2 -52 1 -29 3 -93 7 -143 7 -49 1 -96 6
-103 11 -7 6 -29 8 -52 4 -47 -7 -48 -3 -21 75 51 147 197 432 281 548 24 32
34 40 44 32 7 -6 15 -8 18 -6 3 3 20 -15 39 -40 70 -94 108 -138 154 -176 70
-57 109 -51 65 11 -16 22 -21 51 -26 153 -9 166 -4 178 44 96 30 -51 107 -158
153 -212 4 -5 0 17 -7 50 -21 83 -18 243 5 323 34 119 132 353 212 508 43 83
75 152 70 152 -4 0 -25 -11 -45 -25 -20 -14 -41 -25 -47 -25 -17 0 -181 -171
-241 -251 -144 -193 -186 -320 -190 -576 l-1 -122 -41 35 c-112 98 -168 172
-194 254 -34 111 -43 185 -41 348 6 494 177 1005 408 1225 34 32 61 62 61 67
0 18 -35 10 -74 -16z"/>
<path d="M6750 8889 c0 -7 6 -20 13 -28 7 -9 35 -52 61 -96 26 -44 52 -87 57
-95 10 -17 58 -115 99 -205 38 -82 62 -170 64 -229 1 -57 20 -72 37 -29 9 22
7 44 -6 103 -24 101 -102 295 -145 360 -10 14 -42 64 -73 111 -52 80 -107 136
-107 108z"/>
<path d="M7615 8612 c6 -6 60 -29 120 -52 119 -45 250 -105 277 -128 20 -17
48 -9 48 13 0 19 -171 103 -285 140 -89 29 -176 44 -160 27z"/>
<path d="M9381 8154 c0 -11 3 -14 6 -6 3 7 2 16 -1 19 -3 4 -6 -2 -5 -13z"/>
<path d="M9390 7838 c0 -145 -2 -171 -18 -208 -14 -35 14 -75 146 -205 30 -30
28 -42 -12 -55 -47 -15 -126 -69 -126 -86 0 -20 14 -17 73 16 29 16 77 35 107
43 42 11 56 19 58 35 2 13 -4 22 -17 27 -12 3 -44 34 -73 67 -29 33 -62 64
-73 68 -12 4 -29 24 -40 44 -17 32 -18 41 -7 94 13 65 15 139 6 231 -11 105
-25 67 -24 -71z"/>
<path d="M7510 7922 c0 -5 12 -20 28 -34 47 -43 106 -111 133 -153 14 -22 49
-69 77 -105 111 -141 130 -167 157 -215 16 -27 42 -68 60 -90 17 -22 37 -53
45 -69 8 -15 39 -50 68 -77 68 -62 111 -67 167 -18 29 26 35 38 35 71 0 61
-36 122 -160 273 -55 66 -250 248 -288 269 -10 5 -39 23 -67 41 -55 36 -125
68 -133 60 -3 -2 4 -8 14 -12 55 -21 163 -112 324 -273 157 -156 260 -296 260
-350 0 -26 -35 -60 -61 -60 -19 0 -96 53 -124 86 -36 42 -155 204 -155 211 0
5 -30 49 -66 98 -36 50 -73 101 -82 114 -9 13 -22 28 -28 35 -6 6 -16 21 -22
32 -6 12 -27 40 -47 64 -20 24 -34 49 -31 55 3 8 -14 20 -42 31 -26 11 -50 21
-54 22 -5 2 -8 0 -8 -6z"/>
<path d="M8933 7903 c-6 -15 4 -27 57 -67 48 -36 179 -226 231 -334 17 -34 46
-107 65 -162 30 -88 35 -117 40 -238 4 -75 8 -139 10 -141 12 -13 27 25 31 84
l6 66 28 -33 c16 -18 28 -37 29 -41 0 -4 16 -21 35 -38 19 -17 33 -35 30 -39
-3 -4 -28 -15 -57 -25 -117 -38 -208 -56 -296 -59 -51 -2 -95 -5 -98 -8 -6 -7
112 -29 146 -27 58 3 195 32 260 55 38 13 76 24 84 24 16 0 27 22 18 37 -4 6
-15 12 -26 14 -10 2 -32 30 -50 61 -62 113 -96 168 -105 168 -5 0 -11 17 -14
38 -11 74 -26 140 -36 158 -5 11 -26 57 -47 104 -43 100 -162 284 -235 364
-53 58 -93 73 -106 39z"/>
<path d="M7098 7610 c-52 -16 -139 -72 -197 -128 -103 -101 -242 -334 -261
-437 -34 -185 -34 -181 -12 -211 11 -16 36 -55 57 -86 24 -38 44 -58 56 -58
37 0 30 27 -32 118 l-63 92 18 77 c10 43 26 98 36 122 l17 44 6 -64 c3 -36 17
-89 32 -121 31 -67 102 -135 149 -142 17 -3 63 -10 103 -16 40 -7 87 -9 104
-5 36 8 155 68 180 91 27 25 87 145 104 209 16 62 11 74 -27 75 -9 0 -33 15
-52 34 -28 26 -36 41 -36 69 0 48 41 73 95 58 19 -5 35 -6 35 -3 0 4 -9 39
-19 79 -24 90 -79 182 -122 200 -34 14 -128 16 -171 3z m104 -413 c55 -26 105
-84 114 -134 11 -60 -10 -107 -73 -158 -81 -66 -108 -78 -196 -83 -70 -4 -84
-2 -131 22 -68 34 -105 74 -116 122 -14 59 -2 91 54 146 28 28 50 56 48 63 -1
7 11 18 27 23 26 9 30 8 35 -12 9 -36 46 -76 70 -76 34 0 64 27 77 70 14 47
25 49 91 17z"/>
<path d="M7370 7561 c0 -4 15 -15 33 -24 62 -33 170 -117 248 -193 44 -42 79
-71 79 -64 0 16 -162 177 -230 227 -51 38 -130 71 -130 54z"/>
<path d="M10725 7438 c-22 -5 -74 -18 -115 -28 -42 -11 -106 -22 -143 -26 -55
-6 -67 -10 -67 -25 0 -10 -4 -21 -10 -24 -19 -12 -10 -139 25 -375 20 -129 40
-266 45 -305 40 -273 86 -552 120 -721 22 -110 40 -200 40 -201 0 -2 -7 -3
-16 -3 -8 0 -12 -4 -9 -10 6 -9 -38 -96 -75 -150 -10 -14 -32 -53 -50 -87 -17
-35 -36 -63 -42 -63 -5 0 -7 -4 -4 -8 3 -5 -5 -24 -18 -43 -13 -19 -31 -52
-41 -74 -10 -22 -24 -47 -30 -55 -15 -18 -91 -157 -141 -256 l-36 -71 -126 -7
c-133 -7 -328 -23 -384 -31 -68 -9 -174 -25 -201 -30 -17 -3 -26 -2 -23 4 3 5
-2 7 -11 5 -16 -4 -30 5 -90 56 -7 6 -13 7 -13 3 -1 -4 -10 3 -21 17 -12 14
-23 24 -25 23 -11 -7 -24 -2 -19 7 3 6 -1 10 -10 10 -8 0 -20 -11 -27 -25 -6
-13 -15 -22 -21 -18 -6 3 -7 1 -3 -5 4 -7 4 -18 -1 -24 -4 -7 -8 -15 -9 -18
-12 -39 -18 -49 -27 -43 -6 3 -7 1 -3 -5 3 -6 -3 -27 -14 -46 -11 -20 -17 -36
-13 -36 3 0 -1 -8 -10 -17 -8 -10 -15 -20 -15 -23 2 -10 -36 -85 -46 -92 -6
-4 -7 -8 -2 -8 5 0 1 -9 -9 -20 -10 -11 -15 -20 -11 -20 3 0 0 -13 -9 -30 -8
-16 -15 -41 -15 -55 0 -15 -4 -24 -10 -20 -5 3 -7 0 -4 -8 3 -8 1 -18 -5 -22
-6 -3 -11 -18 -11 -33 0 -31 15 -60 26 -49 4 3 20 -15 37 -41 16 -26 32 -49
36 -52 4 -3 22 -30 41 -60 19 -30 38 -56 42 -58 5 -2 8 -10 8 -18 0 -9 5 -12
13 -8 6 4 9 4 5 -1 -8 -9 22 -65 34 -65 4 0 8 -5 8 -10 0 -9 110 -184 171
-272 11 -15 19 -31 19 -36 0 -4 9 -18 20 -30 12 -12 18 -22 14 -22 -4 0 0 -8
8 -17 8 -10 33 -51 54 -91 l39 -74 393 6 c266 5 392 3 392 -4 0 -5 6 -10 14
-10 8 0 22 -10 30 -22 9 -12 25 -23 37 -25 13 -2 44 -17 71 -33 27 -17 52 -30
58 -30 29 0 12 -30 -62 -113 -46 -51 -103 -117 -128 -146 -25 -30 -60 -70 -78
-90 l-33 -36 28 -8 c39 -11 238 -11 294 1 l45 9 -18 -66 c-24 -88 -22 -303 3
-289 3 2 13 -5 23 -14 10 -10 26 -18 36 -18 10 0 22 -5 25 -10 4 -6 11 -8 16
-5 5 4 9 2 9 -3 0 -5 16 -17 35 -26 19 -9 37 -21 40 -26 3 -6 10 -10 16 -10 5
0 9 930 9 2460 0 2337 -1 2460 -17 2459 -10 -1 -36 -5 -58 -11z"/>
<path d="M8610 7421 c0 -5 27 -25 60 -45 59 -37 173 -166 256 -291 l35 -52
-17 -44 c-64 -171 -105 -307 -100 -336 2 -18 22 -56 44 -85 22 -29 54 -81 70
-114 17 -34 58 -95 91 -137 62 -78 108 -157 92 -157 -5 0 -13 5 -16 10 -10 15
-65 12 -65 -4 0 -21 79 -69 105 -64 39 8 59 -40 52 -128 -6 -77 2 -96 30 -73
12 11 14 27 11 79 -5 71 -36 137 -114 240 -127 170 -245 365 -250 412 -3 36
46 218 65 242 5 6 26 56 46 111 20 55 42 105 48 112 9 9 31 -4 97 -58 47 -39
92 -79 100 -88 8 -10 23 -21 33 -24 13 -5 17 -1 17 16 0 55 -328 320 -510 412
-71 36 -180 75 -180 66z"/>
<path d="M7730 7252 c0 -5 7 -15 15 -22 8 -7 15 -8 15 -2 0 5 -7 15 -15 22 -8
7 -15 8 -15 2z"/>
<path d="M7770 7196 c0 -7 11 -28 24 -47 30 -41 66 -116 66 -136 0 -8 7 -27
14 -42 8 -15 18 -51 22 -80 7 -56 25 -82 19 -29 -7 68 -18 114 -36 152 -11 22
-19 46 -19 53 0 13 -78 143 -86 143 -2 0 -4 -6 -4 -14z"/>
<path d="M8060 6711 c5 -11 19 -23 30 -26 11 -3 20 -10 20 -14 0 -5 19 -21 43
-37 61 -41 76 -51 129 -77 26 -13 53 -29 60 -35 7 -6 27 -13 43 -17 27 -6 28
-5 10 6 -45 28 -253 163 -292 190 -49 34 -57 36 -43 10z"/>
<path d="M8440 6475 c0 -7 61 -37 66 -33 2 3 -12 12 -31 21 -19 9 -35 15 -35
12z"/>
<path d="M8530 6420 c0 -6 8 -13 18 -17 9 -3 24 -12 32 -19 8 -6 46 -21 84
-31 l69 -19 18 -71 c22 -88 61 -172 93 -202 l25 -23 69 60 c38 33 75 61 82 64
19 6 4 26 -66 89 -73 63 -144 109 -171 109 -28 0 -162 35 -208 54 -44 19 -45
19 -45 6z"/>
<path d="M7737 5899 c7 -7 15 -10 18 -7 3 3 -2 9 -12 12 -14 6 -15 5 -6 -5z"/>
<path d="M8530 5683 c0 -5 11 -20 24 -32 14 -13 32 -39 41 -57 9 -19 22 -34
30 -34 27 0 16 35 -22 71 -52 48 -73 63 -73 52z"/>
<path d="M6080 4946 c0 -9 5 -16 10 -16 6 0 10 4 10 9 0 6 -4 13 -10 16 -5 3
-10 -1 -10 -9z"/>
<path d="M7372 4787 c-27 -33 -33 -71 -21 -137 6 -36 17 -76 24 -90 15 -29 65
-78 65 -64 0 5 9 -2 20 -16 l20 -25 -15 44 c-8 24 -19 49 -23 55 -18 24 -32
98 -31 159 2 82 -12 107 -39 74z"/>
<path d="M7494 4403 c9 -17 21 -35 27 -38 22 -14 17 1 -12 35 l-30 35 15 -32z"/>
<path d="M486 4105 c4 -9 16 -21 28 -27 19 -10 19 -9 -3 16 -28 30 -33 32 -25
11z"/>
<path d="M550 4035 c13 -14 26 -25 28 -25 3 0 -5 11 -18 25 -13 14 -26 25 -28
25 -3 0 5 -11 18 -25z"/>
<path d="M595 3980 c10 -11 20 -20 23 -20 3 0 -3 9 -13 20 -10 11 -20 20 -23
20 -3 0 3 -9 13 -20z"/>
<path d="M640 3920 c12 -16 24 -30 26 -30 3 0 -4 14 -16 30 -12 17 -24 30 -26
30 -3 0 4 -13 16 -30z"/>
<path d="M6926 3855 c4 -8 10 -15 15 -15 4 0 6 7 3 15 -4 8 -10 15 -15 15 -4
0 -6 -7 -3 -15z"/>
<path d="M1563 3515 c-3 -9 -3 -19 1 -22 3 -4 6 2 6 13 0 14 16 3 63 -41 l62
-60 -60 63 c-33 34 -61 62 -63 62 -1 0 -5 -7 -9 -15z"/>
<path d="M1700 3386 c0 -2 8 -10 18 -17 15 -13 16 -12 3 4 -13 16 -21 21 -21
13z"/>
<path d="M1521 3364 c0 -11 3 -14 6 -6 3 7 2 16 -1 19 -3 4 -6 -2 -5 -13z"/>
<path d="M1730 3346 c0 -2 8 -10 18 -17 15 -13 16 -12 3 4 -13 16 -21 21 -21
13z"/>
<path d="M1780 3280 c12 -16 24 -30 26 -30 3 0 -4 14 -16 30 -12 17 -24 30
-26 30 -3 0 4 -13 16 -30z"/>
<path d="M1830 3210 c12 -16 24 -30 26 -30 3 0 -4 14 -16 30 -12 17 -24 30
-26 30 -3 0 4 -13 16 -30z"/>
<path d="M2010 2940 c6 -11 13 -20 16 -20 2 0 0 9 -6 20 -6 11 -13 20 -16 20
-2 0 0 -9 6 -20z"/>
<path d="M9526 2908 c-9 -12 -16 -26 -16 -31 0 -18 -148 -235 -226 -330 -55
-66 -47 -93 10 -34 72 76 190 219 234 287 30 46 42 73 40 94 -4 37 -22 43 -42
14z"/>
<path d="M2040 2890 c6 -11 13 -20 16 -20 2 0 0 9 -6 20 -6 11 -13 20 -16 20
-2 0 0 -9 6 -20z"/>
<path d="M2100 2790 c6 -11 13 -20 16 -20 2 0 0 9 -6 20 -6 11 -13 20 -16 20
-2 0 0 -9 6 -20z"/>
<path d="M2130 2740 c6 -11 13 -20 16 -20 2 0 0 9 -6 20 -6 11 -13 20 -16 20
-2 0 0 -9 6 -20z"/>
<path d="M2170 2670 c6 -11 13 -20 16 -20 2 0 0 9 -6 20 -6 11 -13 20 -16 20
-2 0 0 -9 6 -20z"/>
<path d="M2210 2600 c6 -11 13 -20 16 -20 2 0 0 9 -6 20 -6 11 -13 20 -16 20
-2 0 0 -9 6 -20z"/>
<path d="M2255 2520 c9 -16 18 -30 21 -30 2 0 -2 14 -11 30 -9 17 -18 30 -21
30 -2 0 2 -13 11 -30z"/>
<path d="M2869 2493 c-13 -16 -12 -17 4 -4 16 13 21 21 13 21 -2 0 -10 -8 -17
-17z"/>
<path d="M2819 2453 l-24 -28 28 24 c25 23 32 31 24 31 -2 0 -14 -12 -28 -27z"/>
<path d="M9210 2455 c-7 -9 -11 -17 -9 -20 3 -2 10 5 17 15 14 24 10 26 -8 5z"/>
<path d="M2705 2348 l-80 -83 83 80 c76 74 87 85 79 85 -1 0 -38 -37 -82 -82z"/>
<path d="M2325 2390 c9 -16 18 -30 21 -30 2 0 -2 14 -11 30 -9 17 -18 30 -21
30 -2 0 2 -13 11 -30z"/>
<path d="M2385 2281 c8 -17 19 -33 25 -36 5 -3 1 10 -11 29 -25 43 -36 48 -14
7z"/>
<path d="M2609 2243 c-13 -16 -12 -17 4 -4 16 13 21 21 13 21 -2 0 -10 -8 -17
-17z"/>
<path d="M2580 2200 c-6 -11 -8 -20 -6 -20 3 0 10 9 16 20 6 11 8 20 6 20 -3
0 -10 -9 -16 -20z"/>
<path d="M2536 2115 c-9 -26 -7 -32 5 -12 6 10 9 21 6 23 -2 3 -7 -2 -11 -11z"/>
<path d="M2470 2115 c0 -5 5 -17 10 -25 5 -8 10 -10 10 -5 0 6 -5 17 -10 25
-5 8 -10 11 -10 5z"/>
<path d="M2510 2070 c-9 -6 -10 -10 -3 -10 6 0 15 5 18 10 8 12 4 12 -15 0z"/>
<path d="M0 1065 l0 -61 63 -60 c64 -63 267 -214 286 -214 6 0 11 4 11 9 0 15
-98 118 -148 155 -26 19 -74 67 -107 107 -33 39 -70 83 -82 98 l-22 26 -1 -60z"/>
<path d="M0 536 l0 -116 43 0 c39 0 47 -4 70 -37 l27 -38 0 59 0 58 48 -5 c55
-6 121 -39 342 -170 164 -98 270 -139 411 -157 244 -33 260 -34 318 -22 31 7
76 12 99 12 l42 0 0 -60 0 -60 33 0 c23 0 41 8 58 26 33 36 228 164 249 164
19 0 34 26 24 41 -8 14 -34 11 -68 -10 -30 -18 -55 -25 -196 -53 -139 -28
-434 -8 -650 44 -162 39 -352 111 -440 168 -8 5 -62 37 -120 71 -58 34 -141
90 -185 124 -44 33 -86 64 -92 69 -10 5 -13 -19 -13 -108z"/>
<path d="M10270 619 c0 -5 5 -7 10 -4 6 3 10 8 10 11 0 2 -4 4 -10 4 -5 0 -10
-5 -10 -11z"/>
<path d="M10350 409 c0 -40 78 -289 91 -289 15 0 39 51 39 84 0 18 -14 67 -31
107 -17 41 -33 82 -36 92 -6 19 -63 25 -63 6z"/>
<path d="M8660 239 c69 -69 150 -150 180 -182 42 -45 61 -57 84 -57 26 0 28 2
16 13 -13 12 -52 47 -275 242 -125 109 -126 105 -5 -16z"/>
<path d="M1 136 c-1 -57 2 -77 10 -69 7 7 8 32 1 79 l-9 69 -2 -79z"/>
<path d="M10300 70 c0 -25 -4 -30 -24 -30 -13 0 -35 9 -49 20 -36 29 -44 0 -8
-34 23 -22 36 -26 83 -26 l57 0 -8 28 c-10 34 -33 72 -43 72 -5 0 -8 -13 -8
-30z"/>
<path d="M9526 15 c-3 -8 -1 -15 4 -15 6 0 10 7 10 15 0 19 -6 19 -14 0z"/>
</g>
</svg>
